<svg width="48" height="48" viewBox="0 0 48 48" fill="none" xmlns="http://www.w3.org/2000/svg">
<path d="M24 28.5001C21.5183 28.5001 19.5001 26.4819 19.5001 24.0001C19.5001 21.5184 21.5183 19.5002 24 19.5002C26.4817 19.5002 28.4999 21.5184 28.4999 24.0001C28.4999 26.4819 26.4817 28.5001 24 28.5001ZM24 21.7502C22.7591 21.7502 21.75 22.7593 21.75 24.0001C21.75 25.241 22.7591 26.2501 24 26.2501C25.2409 26.2501 26.25 25.241 26.25 24.0001C26.25 22.7593 25.2409 21.7502 24 21.7502Z" fill="#FF6E2A"/>
<path d="M9.37523 25.1251C8.75424 25.1251 8.25025 24.6211 8.25025 24.0001C8.25025 15.3152 15.3151 8.25026 24 8.25026C24.621 8.25026 25.125 8.75426 25.125 9.37525C25.125 9.99625 24.621 10.5002 24 10.5002C16.556 10.5002 10.5002 16.5561 10.5002 24.0001C10.5002 24.6211 9.99622 25.1251 9.37523 25.1251Z" fill="#FF6E2A"/>
<path d="M24 39.75C23.379 39.75 22.875 39.2471 22.875 38.625C22.875 38.0029 23.379 37.5 24 37.5C31.444 37.5 37.4998 31.4442 37.4998 24.0001C37.4998 23.3791 38.0027 22.8751 38.6248 22.8751C39.2469 22.8751 39.7498 23.3791 39.7498 24.0001C39.7498 32.6851 32.6849 39.75 24 39.75Z" fill="#FF6E2A"/>
<path d="M7.12526 42C6.83727 42 6.54927 41.8898 6.3299 41.6704C5.89003 41.2305 5.89003 40.5195 6.3299 40.0796L14.5344 31.8751H11.6252C11.0042 31.8751 10.5002 31.3722 10.5002 30.7501C10.5002 30.128 11.0042 29.6251 11.6252 29.6251H17.2501C17.7046 29.6251 18.1152 29.8985 18.2896 30.3192C18.464 30.74 18.3672 31.2237 18.0455 31.5455L7.92063 41.6704C7.70125 41.8898 7.41326 42 7.12526 42Z" fill="#FF6E2A"/>
<path d="M17.2501 37.5C16.6291 37.5 16.1251 36.9972 16.1251 36.375V30.7501C16.1251 30.128 16.6291 29.6251 17.2501 29.6251C17.8711 29.6251 18.3751 30.128 18.3751 30.7501V36.375C18.3751 36.9972 17.8711 37.5 17.2501 37.5Z" fill="#FF6E2A"/>
<path d="M36.3748 18.3752H30.7499C30.2954 18.3752 29.8837 18.1007 29.7104 17.6811C29.536 17.2603 29.6328 16.7766 29.9545 16.4548L40.0794 6.3299C40.5192 5.89003 41.2302 5.89003 41.6701 6.3299C42.11 6.76978 42.11 7.48077 41.6701 7.92064L33.4656 16.1252H36.3748C36.9969 16.1252 37.4998 16.6292 37.4998 17.2502C37.4998 17.8712 36.9969 18.3752 36.3748 18.3752Z" fill="#FF6E2A"/>
<path d="M30.7499 18.3752C30.1278 18.3752 29.6249 17.8712 29.6249 17.2502V11.6252C29.6249 11.0042 30.1278 10.5002 30.7499 10.5002C31.372 10.5002 31.8749 11.0042 31.8749 11.6252V17.2502C31.8749 17.8712 31.372 18.3752 30.7499 18.3752Z" fill="#FF6E2A"/>
</svg>
