<svg width="48" height="48" viewBox="0 0 48 48" fill="none" xmlns="http://www.w3.org/2000/svg">
<path d="M37.6368 27.5489C36.136 30.2361 34.0945 32.4084 31.5122 34.0668C29.1913 35.5567 26.6586 36.4568 23.9142 36.7665C23.3898 36.8257 22.9791 37.2596 22.9791 37.7874V38.6408C22.9791 39.1931 23.4268 39.6408 23.9791 39.6408H29.0575C29.6098 39.6408 30.0575 40.0885 30.0575 40.6408V41C30.0575 41.5523 29.6098 42 29.0575 42H16.1147C15.5624 42 15.1147 41.5523 15.1147 41V40.6408C15.1147 40.0885 15.5624 39.6408 16.1147 39.6408H19.6199C20.1722 39.6408 20.6199 39.1931 20.6199 38.6408V37.786C20.6199 37.2588 20.2101 36.8252 19.6864 36.7648C17.7989 36.5473 15.9965 36.0444 14.2789 35.2565C12.5882 34.4803 11.0684 33.4838 9.72 32.2669C9.31133 31.898 9.31458 31.265 9.7038 30.8757L9.96405 30.6154C10.3546 30.2248 10.9857 30.2274 11.3998 30.593C12.6805 31.7236 14.1217 32.6289 15.7241 33.3097C17.6377 34.1224 19.6627 34.5286 21.7997 34.5286C24.6441 34.5286 27.272 33.8241 29.6839 32.415C32.0958 31.006 34.006 29.0958 35.4154 26.6839C36.8241 24.2724 37.529 21.6441 37.529 18.7997C37.529 16.6635 37.1228 14.6385 36.3101 12.7241C35.6293 11.122 34.724 9.68058 33.5934 8.40006C33.2278 7.98605 33.2251 7.35494 33.6155 6.96436L33.8726 6.70728C34.2631 6.31667 34.8986 6.31483 35.2676 6.72587C36.618 8.23042 37.6928 9.92839 38.4923 11.82C39.4232 14.022 39.8886 16.3487 39.8886 18.7997C39.8882 21.9457 39.1372 24.8621 37.6368 27.5489ZM15.4883 29.6921C13.5616 28.5649 12.0345 27.0378 10.9074 25.1111C9.77982 23.184 9.21646 21.0803 9.21646 18.7997C9.21646 16.5191 9.77982 14.4154 10.9074 12.4883C12.0345 10.5616 13.5616 9.0345 15.4883 7.90736C17.415 6.78023 19.5191 6.21646 21.7997 6.21646C24.0803 6.21646 26.1844 6.78023 28.1107 7.90736C30.0378 9.0345 31.5645 10.5616 32.6921 12.4883C33.8188 14.4154 34.3825 16.5191 34.3825 18.7997C34.3825 21.0803 33.8188 23.184 32.6921 25.1111C31.5645 27.0378 30.0378 28.5649 28.1107 29.6921C26.184 30.8192 24.0803 31.3825 21.7997 31.3825C19.5191 31.3825 17.415 30.8196 15.4883 29.6921ZM16.678 9.95258C15.1114 10.8698 13.8694 12.1122 12.9522 13.6784C12.0345 15.2451 11.5757 16.952 11.5757 18.8001C11.5757 20.6482 12.0345 22.356 12.9522 23.9218C13.8694 25.4884 15.1114 26.73 16.678 27.6477C18.2442 28.5649 19.9516 29.0242 21.7997 29.0242C23.6478 29.0242 25.3548 28.5653 26.9214 27.6477C28.4876 26.7304 29.7296 25.4884 30.6477 23.9218C31.5649 22.3556 32.0238 20.6482 32.0238 18.8001C32.0238 16.952 31.5649 15.2446 30.6477 13.6784C29.73 12.1122 28.4876 10.8703 26.9214 9.95258C25.3548 9.03491 23.6478 8.57607 21.7997 8.57607C19.9516 8.57607 18.2438 9.03491 16.678 9.95258Z" fill="#2CAD2C"/>
</svg>
