<svg width="48" height="48" viewBox="0 0 48 48" fill="none" xmlns="http://www.w3.org/2000/svg">
<path fill-rule="evenodd" clip-rule="evenodd" d="M17.6324 33.2432V24.8856H19.3199V28.5969L22.7291 24.8856H24.9981L21.8511 28.1408L25.1691 33.2432H22.9856L20.6881 29.3209L19.3199 30.7177V33.2432H17.6324ZM25.9466 33.6423L27.7766 33.8647C27.807 34.0775 27.8773 34.2238 27.9876 34.3036C28.1396 34.4177 28.379 34.4747 28.7059 34.4747C29.124 34.4747 29.4375 34.412 29.6466 34.2865C29.7872 34.2029 29.8936 34.068 29.9658 33.8818C30.0152 33.7487 30.0399 33.5036 30.0399 33.1463V32.2627C29.561 32.9164 28.9567 33.2432 28.227 33.2432C27.4137 33.2432 26.7695 32.8993 26.2944 32.2114C25.9219 31.6679 25.7357 30.9913 25.7357 30.1818C25.7357 29.167 25.9799 28.3917 26.4682 27.8558C26.9566 27.3199 27.5638 27.0519 28.2897 27.0519C29.0385 27.0519 29.6561 27.3807 30.1426 28.0382V27.1888H31.6419V32.6218C31.6419 33.3364 31.583 33.8704 31.4652 34.2238C31.3474 34.5773 31.182 34.8547 30.9692 35.0562C30.7564 35.2576 30.4723 35.4153 30.1169 35.5294C29.7615 35.6434 29.3121 35.7004 28.7686 35.7004C27.7424 35.7004 27.0146 35.5246 26.5851 35.173C26.1556 34.8215 25.9409 34.3758 25.9409 33.8361C25.9409 33.7829 25.9428 33.7183 25.9466 33.6423ZM27.3776 30.0906C27.3776 30.7329 27.502 31.2032 27.751 31.5016C27.9999 31.7999 28.3068 31.9491 28.6717 31.9491C29.0632 31.9491 29.3938 31.7961 29.6637 31.4902C29.9335 31.1842 30.0684 30.731 30.0684 30.1305C30.0684 29.5034 29.9392 29.0378 29.6808 28.7337C29.4223 28.4297 29.0955 28.2777 28.7002 28.2777C28.3163 28.2777 27.9999 28.4268 27.751 28.7252C27.502 29.0235 27.3776 29.4787 27.3776 30.0906ZM24.1204 17.6757C21.9709 17.6757 20.2285 15.9332 20.2285 13.7838C20.2285 11.6344 21.9709 9.89189 24.1204 9.89189C26.2698 9.89189 28.0123 11.6344 28.0123 13.7838C28.0123 15.9332 26.2698 17.6757 24.1204 17.6757ZM24.1204 15.7297C25.1951 15.7297 26.0663 14.8585 26.0663 13.7838C26.0663 12.7091 25.1951 11.8378 24.1204 11.8378C23.0457 11.8378 22.1744 12.7091 22.1744 13.7838C22.1744 14.8585 23.0457 15.7297 24.1204 15.7297ZM16.9026 16.7027C16.532 15.7871 16.3366 14.7996 16.3366 13.7838C16.3366 9.48492 19.8215 6 24.1204 6C28.4192 6 31.9042 9.48492 31.9042 13.7838C31.9042 14.7996 31.7087 15.7871 31.3382 16.7027H32.2678C33.6504 16.7027 34.8434 17.6727 35.1254 19.0263L39.1794 38.4858C39.5082 40.0639 38.4954 41.6099 36.9172 41.9386C36.7214 41.9794 36.5219 42 36.3218 42H11.9189C10.3068 42 9 40.6932 9 39.0811C9 38.8811 9.02056 38.6816 9.06135 38.4858L13.1154 19.0263C13.3974 17.6727 14.5904 16.7027 15.973 16.7027H16.9026ZM19.3284 17.119C19.7783 17.764 19.3168 18.6486 18.5303 18.6486H15.973C15.5121 18.6486 15.1144 18.972 15.0205 19.4232L10.9664 38.8826C10.9528 38.9479 10.9459 39.0144 10.9459 39.0811C10.9459 39.6184 11.3816 40.0541 11.9189 40.0541H36.3218C36.3885 40.0541 36.455 40.0472 36.5203 40.0336C37.0463 39.924 37.384 39.4087 37.2744 38.8826L33.2203 19.4232C33.1263 18.972 32.7287 18.6486 32.2678 18.6486H29.7104C28.924 18.6486 28.4625 17.764 28.9124 17.119C29.5898 16.1479 29.9582 14.9947 29.9582 13.7838C29.9582 10.5596 27.3445 7.94595 24.1204 7.94595C20.8962 7.94595 18.2825 10.5596 18.2825 13.7838C18.2825 14.9947 18.651 16.1479 19.3284 17.119Z" fill="#FF6E2A"/>
</svg>
