<svg width="48" height="48" viewBox="0 0 48 48" fill="none" xmlns="http://www.w3.org/2000/svg">
<path d="M24.4509 6C23.9776 6 23.594 6.38364 23.594 6.85689V11.9982C23.594 12.4715 23.9776 12.8551 24.4509 12.8551C24.9241 12.8551 25.3078 12.4715 25.3078 11.9982V6.85689C25.3078 6.38364 24.9241 6 24.4509 6ZM15.3331 7.55311C15.2226 7.56682 15.1142 7.61446 15.0117 7.67361C14.6018 7.91025 14.4671 8.4286 14.7038 8.83844L16.846 12.5472C17.0826 12.957 17.601 13.1051 18.0108 12.8685C18.4206 12.6319 18.5554 12.1001 18.3188 11.6903L16.1765 7.98156C15.9991 7.67417 15.6644 7.51199 15.3331 7.55311ZM33.3813 7.55311C33.1069 7.57252 32.8463 7.7254 32.6984 7.98156L30.5562 11.6903C30.3196 12.1001 30.4677 12.6319 30.8775 12.8685C31.2874 13.1051 31.8058 12.957 32.0424 12.5472L34.1846 8.83844C34.4213 8.4286 34.2865 7.91025 33.8766 7.67361C33.723 7.58488 33.5459 7.54147 33.3813 7.55311ZM8.79928 14.1404C8.52486 14.1599 8.26432 14.3127 8.11642 14.5689C7.87975 14.9788 8.01454 15.4971 8.42439 15.7337L12.1331 17.8759C12.5429 18.1126 13.0747 17.9779 13.3113 17.568C13.548 17.1582 13.3998 16.6398 12.99 16.4032L9.28128 14.2609C9.12755 14.1722 8.96389 14.1288 8.79928 14.1404V14.1404ZM40.0891 14.1404C39.9244 14.1288 39.7608 14.1722 39.6071 14.2609L35.8984 16.4032C35.4886 16.6398 35.3404 17.1582 35.5771 17.568C35.8136 17.9779 36.3454 18.1126 36.7553 17.8759L40.464 15.7337C40.8738 15.4971 41.0086 14.9788 40.7719 14.5689C40.624 14.3127 40.3635 14.1598 40.0891 14.1404ZM32.9796 17.9831C32.9526 17.9862 32.9258 17.9907 32.8993 17.9964H15.8953C15.873 17.9955 15.8507 17.9955 15.8284 17.9964C15.7011 18.005 15.5774 18.042 15.4662 18.1045C15.355 18.1671 15.2592 18.2536 15.1858 18.3579L10.0444 25.6415C9.93196 25.801 9.87729 25.994 9.88946 26.1888C9.90163 26.3836 9.9799 26.5683 10.1113 26.7126L23.6877 41.5609C23.7546 41.6807 23.8493 41.7827 23.9638 41.8583C24.0783 41.9339 24.2093 41.9808 24.3458 41.9952C24.4822 42.0097 24.6202 41.9912 24.748 41.9412C24.8758 41.8913 24.9897 41.8113 25.0802 41.7082L38.7904 26.7126C38.9218 26.5683 39.0001 26.3836 39.0123 26.1888C39.0244 25.994 38.9698 25.801 38.8573 25.6415L33.716 18.3579C33.6348 18.2384 33.5247 18.1414 33.3959 18.0759C33.2672 18.0103 33.124 17.9784 32.9796 17.983V17.9831ZM17.087 19.7102H22.6433L18.7606 24.4231L17.087 19.7102ZM26.2584 19.7102H31.8148L30.1411 24.4231L26.2584 19.7102ZM24.4509 20.1788L28.6416 25.28H20.2602L24.4509 20.1788ZM15.6276 20.6876L17.2476 25.28H12.3875L15.6276 20.6876V20.6876ZM33.2742 20.6876L36.5142 25.28H31.6541L33.2742 20.6876ZM12.6954 26.9938H17.8769L21.9204 37.0891L12.6954 26.9938V26.9938ZM19.7112 26.9938H29.1905L24.4509 38.8162L19.7112 26.9938ZM31.0248 26.9938H36.2063L26.9813 37.0891L31.0248 26.9938V26.9938Z" fill="#A99587"/>
</svg>
