<svg width="48" height="48" viewBox="0 0 48 48" fill="none" xmlns="http://www.w3.org/2000/svg">
<path d="M37.78 26.0772L37.7797 26.077C37.6878 25.9927 37.5795 25.9268 37.4616 25.882C37.3437 25.8373 37.2178 25.8144 37.091 25.8144C36.9643 25.8144 36.8384 25.8373 36.7205 25.882C36.6025 25.9268 36.4943 25.9927 36.4023 26.077C36.3103 26.1612 36.2363 26.2622 36.1854 26.3747C36.1346 26.4873 36.1081 26.6086 36.1081 26.7316C36.1081 26.8546 36.1346 26.9759 36.1854 27.0884C36.2363 27.2009 36.3103 27.3019 36.4023 27.3862L38.8087 29.5904H23.184C21.2556 29.5892 19.3834 29.004 17.859 27.9282C16.3348 26.8527 15.2448 25.3482 14.7546 23.6512C14.2645 21.9547 14.4002 20.1573 15.1416 18.5377C15.8832 16.9177 17.1903 15.5641 18.8633 14.6907C20.5365 13.8171 22.4796 13.4741 24.3896 13.7165C26.2996 13.9589 28.0659 14.7726 29.4145 16.0278C30.7629 17.2828 31.6178 18.9081 31.8503 20.6496C32.0828 22.3907 31.6808 24.1547 30.7043 25.6676C30.6334 25.7766 30.56 25.8832 30.4841 25.9876C30.4095 26.0879 30.3567 26.2017 30.3296 26.3227C30.3025 26.4441 30.3019 26.5694 30.3281 26.6911C30.3543 26.8126 30.4064 26.9272 30.4805 27.0283C30.5546 27.1293 30.649 27.2147 30.7576 27.2802C30.8662 27.3457 30.987 27.3902 31.1131 27.4119C31.2391 27.4336 31.3685 27.4321 31.494 27.4074C31.6195 27.3828 31.7391 27.3354 31.8459 27.2673C31.9522 27.1995 32.044 27.1124 32.1152 27.0102C32.2078 26.8816 32.2979 26.7506 32.3853 26.6172L32.3859 26.6161C33.59 24.7526 34.0888 22.5744 33.802 20.4215C33.5153 18.2687 32.4599 16.2663 30.8043 14.7248C29.149 13.1835 26.9864 12.1889 24.6539 11.8927C22.3215 11.5965 19.9469 12.0147 17.899 13.0838C15.851 14.153 14.2427 15.8145 13.3282 17.8126C12.4136 19.8111 12.2457 22.0318 12.8515 24.1278C13.4573 26.2234 14.8014 28.0732 16.6705 29.3914C18.5393 30.7095 20.8293 31.4232 23.1838 31.424H23.1839H38.8087L36.4023 33.6282C36.3103 33.7125 36.2363 33.8135 36.1854 33.926C36.1346 34.0385 36.1081 34.1598 36.1081 34.2828C36.1081 34.4058 36.1346 34.5271 36.1854 34.6397C36.2363 34.7522 36.3103 34.8532 36.4023 34.9374C36.4943 35.0217 36.6025 35.0877 36.7205 35.1324C36.8384 35.1771 36.9643 35.2 37.091 35.2C37.2178 35.2 37.3437 35.1771 37.4616 35.1324C37.5795 35.0877 37.6878 35.0217 37.7797 34.9374L41.898 31.1758C41.8982 31.1756 41.8985 31.1754 41.8987 31.1752C41.9926 31.0909 42.0684 30.9893 42.1205 30.8759C42.1728 30.7621 42.2 30.6391 42.2 30.5144C42.2 30.3896 42.1728 30.2667 42.1205 30.1529C42.0682 30.0391 41.9923 29.9373 41.898 29.8529L41.841 29.8019H41.8347L37.78 26.0772ZM13.731 31.1615C13.9169 30.9912 14.0251 30.7563 14.0251 30.5072C14.0251 30.2581 13.9169 30.0232 13.731 29.8529C13.5457 29.6831 13.2978 29.5904 13.0426 29.5904H6.78251C6.52732 29.5904 6.27943 29.6831 6.0941 29.8529C5.90818 30.0232 5.8 30.2581 5.8 30.5072C5.8 30.7563 5.90818 30.9912 6.0941 31.1615C6.27943 31.3313 6.52732 31.424 6.78251 31.424H13.0426C13.2978 31.424 13.5457 31.3313 13.731 31.1615Z" fill="#3755BD" stroke="#3755BD" stroke-width="0.4"/>
</svg>
