<svg width="48" height="48" viewBox="0 0 48 48" fill="none" xmlns="http://www.w3.org/2000/svg">
<path d="M21.4475 9.86527C21.9399 9.86395 22.4277 9.95984 22.8826 10.1474C23.3376 10.3349 23.7506 10.6104 24.0979 10.9579L37.0282 23.8274C37.73 24.5275 38.1242 25.4762 38.1242 26.4653C38.1242 27.4543 37.73 28.403 37.0282 29.1031L29.0517 37.0421C28.3517 37.7388 27.4033 38.1316 26.4133 38.1347C25.4234 38.1379 24.4724 37.7512 23.7679 37.059L10.989 24.5021C10.6369 24.1543 10.3572 23.7408 10.1659 23.2853C9.97456 22.8297 9.87541 22.3411 9.87411 21.8473V13.5958C9.87524 12.6068 10.2705 11.6585 10.9732 10.9592C11.6759 10.2598 12.6286 9.8664 13.6223 9.86527H21.4475ZM21.4475 8H13.6223C12.1312 8 10.7011 8.58956 9.64674 9.63898C8.59235 10.6884 8 12.1117 8 13.5958V21.8473C8.00002 22.5882 8.14784 23.3217 8.43491 24.0053C8.72197 24.6889 9.14256 25.3089 9.67227 25.8295L22.4512 38.3864C23.5079 39.4247 24.9344 40.0047 26.4193 40C27.9042 39.9952 29.3269 39.406 30.3768 38.361L38.3533 30.4221C39.4077 29.3726 40 27.9493 40 26.4653C40 24.9812 39.4077 23.5579 38.3533 22.5084L25.4231 9.63894C24.3687 8.58957 22.9386 8.00003 21.4475 8ZM15.5539 15.6573C15.2918 15.9182 15.1133 16.2505 15.041 16.6124C14.9687 16.9742 15.0058 17.3492 15.1477 17.6901C15.2895 18.0309 15.5297 18.3222 15.8379 18.5272C16.1461 18.7321 16.5084 18.8415 16.8791 18.8415C17.2498 18.8415 17.6121 18.7321 17.9203 18.5272C18.2285 18.3222 18.4687 18.0309 18.6105 17.6901C18.7524 17.3492 18.7895 16.9742 18.7172 16.6124C18.6449 16.2505 18.4664 15.9182 18.2043 15.6573C17.8528 15.3075 17.3761 15.111 16.8791 15.111C16.3821 15.111 15.9054 15.3075 15.5539 15.6573Z" fill="#FF3F2B"/>
</svg>
