<svg width="48" height="48" viewBox="0 0 48 48" fill="none" xmlns="http://www.w3.org/2000/svg">
<path d="M36.8 14.9099L35.1316 16.566C37.4994 19.2632 38.9333 22.7893 38.9333 26.6478C38.9333 35.127 32.0087 42.0007 23.4667 42.0007C14.9247 42.0007 8 35.127 8 26.6478C8 18.5245 14.3556 11.8747 22.4 11.3308V8.11838H20.2667C19.6776 8.11838 19.2 7.64433 19.2 7.05956C19.2 6.47478 19.6776 6.00073 20.2667 6.00073H26.6667C27.2558 6.00073 27.7333 6.47478 27.7333 7.05956C27.7333 7.64433 27.2558 8.11838 26.6667 8.11838H24.5333V11.3308C28.002 11.5653 31.1566 12.935 33.6231 15.0686L35.2915 13.4125L33.9124 12.0436C33.4959 11.6301 33.4959 10.9596 33.9124 10.5461C34.329 10.1327 35.0044 10.1327 35.4209 10.5461L39.6876 14.7814C40.1041 15.1949 40.1041 15.8654 39.6876 16.2788C39.271 16.6923 38.5956 16.6923 38.1791 16.2788L36.8 14.9099ZM23.4667 39.8831C30.8305 39.8831 36.8 33.9574 36.8 26.6478C36.8 19.3381 30.8305 13.4125 23.4667 13.4125C16.1029 13.4125 10.1333 19.3381 10.1333 26.6478C10.1333 33.9574 16.1029 39.8831 23.4667 39.8831ZM34.0807 28.7654H22.4C21.8109 28.7654 21.3333 28.2914 21.3333 27.7066V16.1118C21.3333 15.5676 21.749 15.112 22.2946 15.0582C22.6824 15.02 23.0735 15.0007 23.4667 15.0007C29.9468 15.0007 35.2 20.2153 35.2 26.6478C35.2 27.0381 35.1806 27.4262 35.1421 27.8112C35.0879 28.3528 34.629 28.7654 34.0807 28.7654ZM23.4667 17.1184V26.6478H33.0667C33.0667 21.3848 28.7686 17.1184 23.4667 17.1184ZM13.3333 27.7066C12.7442 27.7066 12.2667 27.2326 12.2667 26.6478C12.2667 26.063 12.7442 25.589 13.3333 25.589H15.4667C16.0558 25.589 16.5333 26.063 16.5333 26.6478C16.5333 27.2326 16.0558 27.7066 15.4667 27.7066H13.3333ZM24.5333 36.7066C24.5333 37.2914 24.0558 37.7654 23.4667 37.7654C22.8776 37.7654 22.4 37.2914 22.4 36.7066V34.589C22.4 34.0042 22.8776 33.5301 23.4667 33.5301C24.0558 33.5301 24.5333 34.0042 24.5333 34.589V36.7066Z" fill="#A99587"/>
</svg>
