<svg width="48" height="48" viewBox="0 0 48 48" fill="none" xmlns="http://www.w3.org/2000/svg">
<path d="M15.9203 37.2297L15.9203 37.2297L22.9219 30.9206V41.2123C22.9219 41.4477 23.0154 41.6735 23.1819 41.84C23.3484 42.0065 23.5742 42.1 23.8096 42.1C24.0451 42.1 24.2709 42.0065 24.4374 41.84C24.6038 41.6735 24.6974 41.4477 24.6974 41.2123V30.9188L31.7384 37.1903C31.7384 37.1904 31.7385 37.1904 31.7386 37.1905C31.915 37.3491 32.1471 37.4312 32.384 37.4188C32.621 37.4063 32.8434 37.3002 33.0021 37.1238C33.1609 36.9474 33.2431 36.7151 33.2306 36.4781C33.2181 36.2411 33.112 36.0188 32.9356 35.86L32.9352 35.8597L26.3174 29.9687H34.2867C35.4623 29.9687 36.5897 29.5017 37.421 28.6704C38.2523 27.8392 38.7193 26.7117 38.7193 25.5361V14.3501C38.7193 13.1745 38.2523 12.0471 37.421 11.2158C36.5897 10.3845 35.4623 9.91751 34.2867 9.91751H13.3326C12.157 9.91751 11.0296 10.3845 10.1983 11.2158C9.36701 12.0471 8.9 13.1745 8.9 14.3501V25.5361C8.9 26.7117 9.36701 27.8392 10.1983 28.6704C11.0296 29.5017 12.157 29.9687 13.3326 29.9687H21.3042L14.723 35.8994C14.5466 36.0582 14.4405 36.2805 14.428 36.5175C14.4156 36.7545 14.4978 36.9868 14.6565 37.1632C14.8153 37.3396 15.0376 37.4457 15.2746 37.4582C15.5116 37.4706 15.7439 37.3885 15.9203 37.2297ZM36.9419 14.2501H36.9044V14.3501V25.5361C36.9044 26.2408 36.6244 26.9167 36.1261 27.415C35.6278 27.9133 34.952 28.1932 34.2473 28.1932H13.3326C12.6279 28.1932 11.952 27.9133 11.4537 27.415C10.9554 26.9167 10.6755 26.2408 10.6755 25.5361V14.3501C10.6755 13.6454 10.9554 12.9696 11.4537 12.4712C11.952 11.9729 12.6279 11.693 13.3326 11.693H34.2867C34.9914 11.693 35.6672 11.9729 36.1655 12.4712C36.6402 12.9459 36.9167 13.5817 36.9419 14.2501ZM32.2385 7.67549C32.474 7.67549 32.6998 7.58196 32.8662 7.41548C33.0327 7.24899 33.1263 7.02319 33.1263 6.78775C33.1263 6.5523 33.0327 6.3265 32.8662 6.16001C32.6998 5.99353 32.474 5.9 32.2385 5.9H15.3807C15.1453 5.9 14.9195 5.99353 14.753 6.16001C14.5865 6.3265 14.493 6.5523 14.493 6.78775C14.493 7.02319 14.5865 7.24899 14.753 7.41548C14.9195 7.58196 15.1453 7.67549 15.3807 7.67549H32.2385ZM16.5624 25.6361C16.7978 25.6361 17.0236 25.5426 17.1901 25.3761C17.3566 25.2096 17.4501 24.9838 17.4501 24.7484V18.5252C17.4501 18.2897 17.3566 18.0639 17.1901 17.8974C17.0236 17.731 16.7978 17.6374 16.5624 17.6374C16.3269 17.6374 16.1011 17.731 15.9346 17.8974C15.7681 18.0639 15.6746 18.2897 15.6746 18.5252V24.7484C15.6746 24.9838 15.7681 25.2096 15.9346 25.3761C16.1011 25.5426 16.3269 25.6361 16.5624 25.6361ZM21.4464 25.6361C21.6818 25.6361 21.9076 25.5426 22.0741 25.3761C22.2406 25.2096 22.3341 24.9838 22.3341 24.7484V15.3742C22.3341 15.1387 22.2406 14.9129 22.0741 14.7464C21.9076 14.58 21.6818 14.4864 21.4464 14.4864C21.2109 14.4864 20.9851 14.58 20.8187 14.7464C20.6522 14.9129 20.5586 15.1387 20.5586 15.3742V24.7484C20.5586 24.9838 20.6522 25.2096 20.8187 25.3761C20.9851 25.5426 21.2109 25.6361 21.4464 25.6361ZM26.2516 25.6361C26.4871 25.6361 26.7129 25.5426 26.8794 25.3761C27.0459 25.2096 27.1394 24.9838 27.1394 24.7484V19.7462C27.1394 19.5107 27.0459 19.2849 26.8794 19.1184C26.7129 18.952 26.4871 18.8584 26.2516 18.8584C26.0162 18.8584 25.7904 18.952 25.6239 19.1184C25.4574 19.2849 25.3639 19.5107 25.3639 19.7462V24.7484C25.3639 24.9838 25.4574 25.2096 25.6239 25.3761C25.7904 25.5426 26.0162 25.6361 26.2516 25.6361ZM31.0569 25.6361C31.2923 25.6361 31.5181 25.5426 31.6846 25.3761C31.8511 25.2096 31.9446 24.9838 31.9446 24.7484V18.9584C31.9446 18.723 31.8511 18.4972 31.6846 18.3307C31.5181 18.1642 31.2923 18.0707 31.0569 18.0707C30.8215 18.0707 30.5956 18.1642 30.4292 18.3307C30.2627 18.4972 30.1691 18.723 30.1691 18.9584V24.7484C30.1691 24.9838 30.2627 25.2096 30.4292 25.3761C30.5956 25.5426 30.8214 25.6361 31.0569 25.6361Z" fill="#2CAD2C" stroke="#2CAD2C" stroke-width="0.2"/>
</svg>
