<svg width="48" height="48" viewBox="0 0 48 48" fill="none" xmlns="http://www.w3.org/2000/svg">
<path d="M42.9881 12.42C42.2294 11.5403 41.0912 11.0795 39.9531 11.0795H37.466C37.0445 7.09989 33.6301 4 29.5412 4C25.4524 4 22.0379 7.09989 21.6164 11.0795H19.1294C17.9912 11.0795 16.8531 11.5822 16.0943 12.42C15.3356 13.2578 14.9562 14.4307 15.0826 15.5618L15.3356 17.8657C15.8414 17.782 16.3472 17.7401 16.8109 17.8238L16.9795 17.8657C17.0217 17.8657 17.0217 17.8657 17.0639 17.9076L16.8109 15.3942C16.7266 14.724 16.9374 14.0956 17.4011 13.5929C17.8648 13.0902 18.4549 12.8389 19.1294 12.8389H21.6164C22.0379 16.8185 25.4524 19.9184 29.5412 19.9184C33.6301 19.9184 37.0445 16.8185 37.466 12.8389H39.9531C40.6275 12.8389 41.2598 13.1321 41.6814 13.5929C42.1451 14.0956 42.3558 14.724 42.2715 15.3942L40.4589 32.2342C40.3325 33.4071 39.3208 34.3287 38.1405 34.3287H30.4264V24.3169C30.4264 23.8561 30.0471 23.4372 29.5412 23.4372C29.0775 23.4791 28.656 23.8561 28.656 24.3169V34.2868H25.3259C25.2416 34.8733 25.1573 35.4597 25.0308 36.0043H38.0983C40.206 36.0043 41.9343 34.4544 42.1451 32.4017L43.9577 15.5618C44.1263 14.4307 43.789 13.2997 42.9881 12.42ZM35.6956 11.0795H34.8525C34.3889 11.0795 33.9673 11.4565 33.9673 11.9592C33.9673 12.4619 34.3467 12.8389 34.8525 12.8389H35.6956C35.527 13.8861 35.1476 14.8496 34.5153 15.6874L33.9252 15.101C33.5879 14.7658 33.0399 14.7658 32.7027 15.101C32.3655 15.4361 32.3655 15.9807 32.7027 16.3158L33.2929 16.9023C32.4498 17.5306 31.4803 17.9495 30.4264 18.0752V17.2374C30.4264 16.7766 30.0471 16.3577 29.5412 16.3577C29.0775 16.3577 28.656 16.7347 28.656 17.2374V18.0752C27.6022 17.9076 26.6326 17.5306 25.7896 16.9023L26.3797 16.3158C26.717 15.9807 26.717 15.4361 26.3797 15.101C26.0425 14.7658 25.4945 14.7658 25.1573 15.101L24.5671 15.6874C23.9348 14.8496 23.5133 13.8861 23.3868 12.8389H24.2299C24.6936 12.8389 25.1151 12.4619 25.1151 11.9592C25.1151 11.4565 24.7357 11.0795 24.2299 11.0795H23.3868C23.5555 10.0322 23.9348 9.06874 24.5671 8.23093L25.1573 8.8174C25.3259 8.98496 25.5367 9.06874 25.7896 9.06874C26.0425 9.06874 26.2533 8.98496 26.4219 8.8174C26.7591 8.48228 26.7591 7.9377 26.4219 7.60258L25.8317 7.01611C26.6748 6.38776 27.6443 5.96885 28.6982 5.84318V6.68099C28.6982 7.14178 29.0775 7.56069 29.5834 7.56069C30.0471 7.56069 30.4686 7.18367 30.4686 6.68099V5.84318C33.1664 6.22019 35.3162 8.35661 35.6956 11.0795Z" fill="#FF6E2A"/>
<path d="M28.9089 11.3308C28.5717 11.666 28.5717 12.2105 28.9089 12.5457C29.0775 12.7132 29.2883 12.797 29.5412 12.797C29.7941 12.797 30.0049 12.7132 30.1735 12.5457L32.8292 9.90655C33.1664 9.57143 33.1664 9.02685 32.8292 8.69173C32.492 8.35661 31.944 8.35661 31.6067 8.69173L28.9089 11.3308Z" fill="#FF6E2A"/>
<path d="M14.366 25.8249C14.8297 23.4372 16.1786 21.7615 16.9374 20.9656C17.3168 20.5886 17.106 19.9184 16.558 19.8346C16.5159 19.8346 16.5159 19.8346 16.4737 19.8346C15.5885 19.7089 14.7033 20.1278 14.1974 20.8818C13.2279 22.348 13.0171 24.4006 13.0171 25.8668C11.0359 24.9871 7.95874 24.6101 5.68246 27.2492C2.22589 31.2288 4.8394 39.1042 6.90491 41.5338C8.88611 43.7959 12.5956 42.8324 13.7337 42.4973C14.2817 42.6649 15.462 43 16.8109 43C18.1177 43 19.5509 42.6649 20.5204 41.5338C22.5859 39.1461 25.1994 31.2707 21.7429 27.2492C19.4666 24.5682 16.3472 24.9871 14.366 25.8249ZM19.2137 40.3609C17.9069 41.869 14.8719 40.9893 14.2817 40.8217C14.1131 40.7798 13.9024 40.7379 13.7337 40.7379C13.5651 40.7379 13.3544 40.7798 13.1857 40.8217C12.5956 41.0312 9.56056 41.869 8.25381 40.3609C6.31476 38.0988 4.41786 31.3126 7.03137 28.2965C9.51841 25.406 13.1436 27.7519 13.2701 27.8357C13.5651 28.0451 13.9445 28.0451 14.2396 27.8357C14.4082 27.7519 17.9912 25.406 20.4783 28.2965C23.0496 31.3126 21.1527 38.0988 19.2137 40.3609Z" fill="#FF6E2A"/>
<path d="M9.81348 30.7261C10.1086 30.3491 10.0664 29.8464 9.72918 29.5113C9.3498 29.218 8.84396 29.2599 8.50673 29.5951C6.77845 31.5639 8.16951 37.0097 9.60272 38.8528C9.77133 39.0623 10.0243 39.188 10.2772 39.188C10.4458 39.188 10.6566 39.1461 10.783 39.0204C11.1624 38.7272 11.2467 38.1826 10.9516 37.8056C9.72918 36.2556 8.84396 31.8153 9.81348 30.7261Z" fill="#FF6E2A"/>
<path d="M11.0359 23.9817C11.4153 24.0655 11.7947 23.7723 11.7947 23.3534C11.7525 22.6831 11.6261 21.6359 10.9516 20.84C10.3193 20.044 9.3498 19.667 8.67535 19.4995C8.29597 19.4157 7.91659 19.7089 7.91659 20.1278C7.95874 20.7981 8.0852 21.8453 8.75965 22.6412C9.39195 23.4372 10.4036 23.8142 11.0359 23.9817Z" fill="#FF6E2A"/>
</svg>
