<svg width="48" height="48" viewBox="0 0 48 48" fill="none" xmlns="http://www.w3.org/2000/svg">
<mask id="path-1-outside-1" maskUnits="userSpaceOnUse" x="3" y="10" width="42" height="28" fill="black">
<rect fill="white" x="3" y="10" width="42" height="28"/>
<path d="M42 21.6667H41.3333V19.6667C41.3333 18.9594 41.0524 18.2811 40.5523 17.781C40.0522 17.281 39.3739 17 38.6667 17C38.1971 17.0026 37.7368 17.1306 37.3333 17.3707V14.3333C37.3333 13.4493 36.9821 12.6014 36.357 11.9763C35.7319 11.3512 34.8841 11 34 11C33.1159 11 32.2681 11.3512 31.643 11.9763C31.0179 12.6014 30.6667 13.4493 30.6667 14.3333V21.6667H17.3333V14.3333C17.3333 13.4493 16.9821 12.6014 16.357 11.9763C15.7319 11.3512 14.8841 11 14 11C13.1159 11 12.2681 11.3512 11.643 11.9763C11.0179 12.6014 10.6667 13.4493 10.6667 14.3333V17.3707C10.2632 17.1306 9.80286 17.0026 9.33333 17C8.62609 17 7.94781 17.281 7.44772 17.781C6.94762 18.2811 6.66667 18.9594 6.66667 19.6667V21.6667H6C5.46957 21.6667 4.96086 21.8774 4.58579 22.2525C4.21071 22.6275 4 23.1362 4 23.6667V25C4 25.5304 4.21071 26.0391 4.58579 26.4142C4.96086 26.7893 5.46957 27 6 27H6.66667V29C6.66667 29.7072 6.94762 30.3855 7.44772 30.8856C7.94781 31.3857 8.62609 31.6667 9.33333 31.6667C9.80286 31.6641 10.2632 31.5361 10.6667 31.296V34.3333C10.6667 35.2174 11.0179 36.0652 11.643 36.6904C12.2681 37.3155 13.1159 37.6667 14 37.6667C14.8841 37.6667 15.7319 37.3155 16.357 36.6904C16.9821 36.0652 17.3333 35.2174 17.3333 34.3333V27H30.6667V34.3333C30.6667 35.2174 31.0179 36.0652 31.643 36.6904C32.2681 37.3155 33.1159 37.6667 34 37.6667C34.8841 37.6667 35.7319 37.3155 36.357 36.6904C36.9821 36.0652 37.3333 35.2174 37.3333 34.3333V31.296C37.7368 31.5361 38.1971 31.6641 38.6667 31.6667C39.3739 31.6667 40.0522 31.3857 40.5523 30.8856C41.0524 30.3855 41.3333 29.7072 41.3333 29V27H42C42.5304 27 43.0391 26.7893 43.4142 26.4142C43.7893 26.0391 44 25.5304 44 25V23.6667C44 23.1362 43.7893 22.6275 43.4142 22.2525C43.0391 21.8774 42.5304 21.6667 42 21.6667V21.6667ZM6 25.6667C5.82319 25.6667 5.65362 25.5964 5.5286 25.4714C5.40357 25.3464 5.33333 25.1768 5.33333 25V23.6667C5.33333 23.4899 5.40357 23.3203 5.5286 23.1953C5.65362 23.0702 5.82319 23 6 23H6.66667V25.6667H6ZM9.33333 30.3333C8.97971 30.3333 8.64057 30.1929 8.39052 29.9428C8.14048 29.6928 8 29.3536 8 29V19.6667C8 19.313 8.14048 18.9739 8.39052 18.7239C8.64057 18.4738 8.97971 18.3333 9.33333 18.3333C9.68696 18.3333 10.0261 18.4738 10.2761 18.7239C10.5262 18.9739 10.6667 19.313 10.6667 19.6667V29C10.6667 29.3536 10.5262 29.6928 10.2761 29.9428C10.0261 30.1929 9.68696 30.3333 9.33333 30.3333ZM16 34.3333C16 34.8638 15.7893 35.3725 15.4142 35.7475C15.0391 36.1226 14.5304 36.3333 14 36.3333C13.4696 36.3333 12.9609 36.1226 12.5858 35.7475C12.2107 35.3725 12 34.8638 12 34.3333V14.3333C12 13.8029 12.2107 13.2942 12.5858 12.9191C12.9609 12.544 13.4696 12.3333 14 12.3333C14.5304 12.3333 15.0391 12.544 15.4142 12.9191C15.7893 13.2942 16 13.8029 16 14.3333V34.3333ZM17.3333 25.6667V23H30.6667V25.6667H17.3333ZM36 34.3333C36 34.8638 35.7893 35.3725 35.4142 35.7475C35.0391 36.1226 34.5304 36.3333 34 36.3333C33.4696 36.3333 32.9609 36.1226 32.5858 35.7475C32.2107 35.3725 32 34.8638 32 34.3333V14.3333C32 13.8029 32.2107 13.2942 32.5858 12.9191C32.9609 12.544 33.4696 12.3333 34 12.3333C34.5304 12.3333 35.0391 12.544 35.4142 12.9191C35.7893 13.2942 36 13.8029 36 14.3333V34.3333ZM40 29C40 29.3536 39.8595 29.6928 39.6095 29.9428C39.3594 30.1929 39.0203 30.3333 38.6667 30.3333C38.313 30.3333 37.9739 30.1929 37.7239 29.9428C37.4738 29.6928 37.3333 29.3536 37.3333 29V19.6667C37.3333 19.313 37.4738 18.9739 37.7239 18.7239C37.9739 18.4738 38.313 18.3333 38.6667 18.3333C39.0203 18.3333 39.3594 18.4738 39.6095 18.7239C39.8595 18.9739 40 19.313 40 19.6667V29ZM42.6667 25C42.6667 25.1768 42.5964 25.3464 42.4714 25.4714C42.3464 25.5964 42.1768 25.6667 42 25.6667H41.3333V23H42C42.1768 23 42.3464 23.0702 42.4714 23.1953C42.5964 23.3203 42.6667 23.4899 42.6667 23.6667V25Z"/>
</mask>
<path d="M42 21.6667H41.3333V19.6667C41.3333 18.9594 41.0524 18.2811 40.5523 17.781C40.0522 17.281 39.3739 17 38.6667 17C38.1971 17.0026 37.7368 17.1306 37.3333 17.3707V14.3333C37.3333 13.4493 36.9821 12.6014 36.357 11.9763C35.7319 11.3512 34.8841 11 34 11C33.1159 11 32.2681 11.3512 31.643 11.9763C31.0179 12.6014 30.6667 13.4493 30.6667 14.3333V21.6667H17.3333V14.3333C17.3333 13.4493 16.9821 12.6014 16.357 11.9763C15.7319 11.3512 14.8841 11 14 11C13.1159 11 12.2681 11.3512 11.643 11.9763C11.0179 12.6014 10.6667 13.4493 10.6667 14.3333V17.3707C10.2632 17.1306 9.80286 17.0026 9.33333 17C8.62609 17 7.94781 17.281 7.44772 17.781C6.94762 18.2811 6.66667 18.9594 6.66667 19.6667V21.6667H6C5.46957 21.6667 4.96086 21.8774 4.58579 22.2525C4.21071 22.6275 4 23.1362 4 23.6667V25C4 25.5304 4.21071 26.0391 4.58579 26.4142C4.96086 26.7893 5.46957 27 6 27H6.66667V29C6.66667 29.7072 6.94762 30.3855 7.44772 30.8856C7.94781 31.3857 8.62609 31.6667 9.33333 31.6667C9.80286 31.6641 10.2632 31.5361 10.6667 31.296V34.3333C10.6667 35.2174 11.0179 36.0652 11.643 36.6904C12.2681 37.3155 13.1159 37.6667 14 37.6667C14.8841 37.6667 15.7319 37.3155 16.357 36.6904C16.9821 36.0652 17.3333 35.2174 17.3333 34.3333V27H30.6667V34.3333C30.6667 35.2174 31.0179 36.0652 31.643 36.6904C32.2681 37.3155 33.1159 37.6667 34 37.6667C34.8841 37.6667 35.7319 37.3155 36.357 36.6904C36.9821 36.0652 37.3333 35.2174 37.3333 34.3333V31.296C37.7368 31.5361 38.1971 31.6641 38.6667 31.6667C39.3739 31.6667 40.0522 31.3857 40.5523 30.8856C41.0524 30.3855 41.3333 29.7072 41.3333 29V27H42C42.5304 27 43.0391 26.7893 43.4142 26.4142C43.7893 26.0391 44 25.5304 44 25V23.6667C44 23.1362 43.7893 22.6275 43.4142 22.2525C43.0391 21.8774 42.5304 21.6667 42 21.6667V21.6667ZM6 25.6667C5.82319 25.6667 5.65362 25.5964 5.5286 25.4714C5.40357 25.3464 5.33333 25.1768 5.33333 25V23.6667C5.33333 23.4899 5.40357 23.3203 5.5286 23.1953C5.65362 23.0702 5.82319 23 6 23H6.66667V25.6667H6ZM9.33333 30.3333C8.97971 30.3333 8.64057 30.1929 8.39052 29.9428C8.14048 29.6928 8 29.3536 8 29V19.6667C8 19.313 8.14048 18.9739 8.39052 18.7239C8.64057 18.4738 8.97971 18.3333 9.33333 18.3333C9.68696 18.3333 10.0261 18.4738 10.2761 18.7239C10.5262 18.9739 10.6667 19.313 10.6667 19.6667V29C10.6667 29.3536 10.5262 29.6928 10.2761 29.9428C10.0261 30.1929 9.68696 30.3333 9.33333 30.3333ZM16 34.3333C16 34.8638 15.7893 35.3725 15.4142 35.7475C15.0391 36.1226 14.5304 36.3333 14 36.3333C13.4696 36.3333 12.9609 36.1226 12.5858 35.7475C12.2107 35.3725 12 34.8638 12 34.3333V14.3333C12 13.8029 12.2107 13.2942 12.5858 12.9191C12.9609 12.544 13.4696 12.3333 14 12.3333C14.5304 12.3333 15.0391 12.544 15.4142 12.9191C15.7893 13.2942 16 13.8029 16 14.3333V34.3333ZM17.3333 25.6667V23H30.6667V25.6667H17.3333ZM36 34.3333C36 34.8638 35.7893 35.3725 35.4142 35.7475C35.0391 36.1226 34.5304 36.3333 34 36.3333C33.4696 36.3333 32.9609 36.1226 32.5858 35.7475C32.2107 35.3725 32 34.8638 32 34.3333V14.3333C32 13.8029 32.2107 13.2942 32.5858 12.9191C32.9609 12.544 33.4696 12.3333 34 12.3333C34.5304 12.3333 35.0391 12.544 35.4142 12.9191C35.7893 13.2942 36 13.8029 36 14.3333V34.3333ZM40 29C40 29.3536 39.8595 29.6928 39.6095 29.9428C39.3594 30.1929 39.0203 30.3333 38.6667 30.3333C38.313 30.3333 37.9739 30.1929 37.7239 29.9428C37.4738 29.6928 37.3333 29.3536 37.3333 29V19.6667C37.3333 19.313 37.4738 18.9739 37.7239 18.7239C37.9739 18.4738 38.313 18.3333 38.6667 18.3333C39.0203 18.3333 39.3594 18.4738 39.6095 18.7239C39.8595 18.9739 40 19.313 40 19.6667V29ZM42.6667 25C42.6667 25.1768 42.5964 25.3464 42.4714 25.4714C42.3464 25.5964 42.1768 25.6667 42 25.6667H41.3333V23H42C42.1768 23 42.3464 23.0702 42.4714 23.1953C42.5964 23.3203 42.6667 23.4899 42.6667 23.6667V25Z" fill="#FF3F2B"/>
<path d="M42 21.6667H41.3333V19.6667C41.3333 18.9594 41.0524 18.2811 40.5523 17.781C40.0522 17.281 39.3739 17 38.6667 17C38.1971 17.0026 37.7368 17.1306 37.3333 17.3707V14.3333C37.3333 13.4493 36.9821 12.6014 36.357 11.9763C35.7319 11.3512 34.8841 11 34 11C33.1159 11 32.2681 11.3512 31.643 11.9763C31.0179 12.6014 30.6667 13.4493 30.6667 14.3333V21.6667H17.3333V14.3333C17.3333 13.4493 16.9821 12.6014 16.357 11.9763C15.7319 11.3512 14.8841 11 14 11C13.1159 11 12.2681 11.3512 11.643 11.9763C11.0179 12.6014 10.6667 13.4493 10.6667 14.3333V17.3707C10.2632 17.1306 9.80286 17.0026 9.33333 17C8.62609 17 7.94781 17.281 7.44772 17.781C6.94762 18.2811 6.66667 18.9594 6.66667 19.6667V21.6667H6C5.46957 21.6667 4.96086 21.8774 4.58579 22.2525C4.21071 22.6275 4 23.1362 4 23.6667V25C4 25.5304 4.21071 26.0391 4.58579 26.4142C4.96086 26.7893 5.46957 27 6 27H6.66667V29C6.66667 29.7072 6.94762 30.3855 7.44772 30.8856C7.94781 31.3857 8.62609 31.6667 9.33333 31.6667C9.80286 31.6641 10.2632 31.5361 10.6667 31.296V34.3333C10.6667 35.2174 11.0179 36.0652 11.643 36.6904C12.2681 37.3155 13.1159 37.6667 14 37.6667C14.8841 37.6667 15.7319 37.3155 16.357 36.6904C16.9821 36.0652 17.3333 35.2174 17.3333 34.3333V27H30.6667V34.3333C30.6667 35.2174 31.0179 36.0652 31.643 36.6904C32.2681 37.3155 33.1159 37.6667 34 37.6667C34.8841 37.6667 35.7319 37.3155 36.357 36.6904C36.9821 36.0652 37.3333 35.2174 37.3333 34.3333V31.296C37.7368 31.5361 38.1971 31.6641 38.6667 31.6667C39.3739 31.6667 40.0522 31.3857 40.5523 30.8856C41.0524 30.3855 41.3333 29.7072 41.3333 29V27H42C42.5304 27 43.0391 26.7893 43.4142 26.4142C43.7893 26.0391 44 25.5304 44 25V23.6667C44 23.1362 43.7893 22.6275 43.4142 22.2525C43.0391 21.8774 42.5304 21.6667 42 21.6667V21.6667ZM6 25.6667C5.82319 25.6667 5.65362 25.5964 5.5286 25.4714C5.40357 25.3464 5.33333 25.1768 5.33333 25V23.6667C5.33333 23.4899 5.40357 23.3203 5.5286 23.1953C5.65362 23.0702 5.82319 23 6 23H6.66667V25.6667H6ZM9.33333 30.3333C8.97971 30.3333 8.64057 30.1929 8.39052 29.9428C8.14048 29.6928 8 29.3536 8 29V19.6667C8 19.313 8.14048 18.9739 8.39052 18.7239C8.64057 18.4738 8.97971 18.3333 9.33333 18.3333C9.68696 18.3333 10.0261 18.4738 10.2761 18.7239C10.5262 18.9739 10.6667 19.313 10.6667 19.6667V29C10.6667 29.3536 10.5262 29.6928 10.2761 29.9428C10.0261 30.1929 9.68696 30.3333 9.33333 30.3333ZM16 34.3333C16 34.8638 15.7893 35.3725 15.4142 35.7475C15.0391 36.1226 14.5304 36.3333 14 36.3333C13.4696 36.3333 12.9609 36.1226 12.5858 35.7475C12.2107 35.3725 12 34.8638 12 34.3333V14.3333C12 13.8029 12.2107 13.2942 12.5858 12.9191C12.9609 12.544 13.4696 12.3333 14 12.3333C14.5304 12.3333 15.0391 12.544 15.4142 12.9191C15.7893 13.2942 16 13.8029 16 14.3333V34.3333ZM17.3333 25.6667V23H30.6667V25.6667H17.3333ZM36 34.3333C36 34.8638 35.7893 35.3725 35.4142 35.7475C35.0391 36.1226 34.5304 36.3333 34 36.3333C33.4696 36.3333 32.9609 36.1226 32.5858 35.7475C32.2107 35.3725 32 34.8638 32 34.3333V14.3333C32 13.8029 32.2107 13.2942 32.5858 12.9191C32.9609 12.544 33.4696 12.3333 34 12.3333C34.5304 12.3333 35.0391 12.544 35.4142 12.9191C35.7893 13.2942 36 13.8029 36 14.3333V34.3333ZM40 29C40 29.3536 39.8595 29.6928 39.6095 29.9428C39.3594 30.1929 39.0203 30.3333 38.6667 30.3333C38.313 30.3333 37.9739 30.1929 37.7239 29.9428C37.4738 29.6928 37.3333 29.3536 37.3333 29V19.6667C37.3333 19.313 37.4738 18.9739 37.7239 18.7239C37.9739 18.4738 38.313 18.3333 38.6667 18.3333C39.0203 18.3333 39.3594 18.4738 39.6095 18.7239C39.8595 18.9739 40 19.313 40 19.6667V29ZM42.6667 25C42.6667 25.1768 42.5964 25.3464 42.4714 25.4714C42.3464 25.5964 42.1768 25.6667 42 25.6667H41.3333V23H42C42.1768 23 42.3464 23.0702 42.4714 23.1953C42.5964 23.3203 42.6667 23.4899 42.6667 23.6667V25Z" stroke="#FF3F2B" stroke-width="0.6" mask="url(#path-1-outside-1)"/>
</svg>
