<svg width="48" height="48" viewBox="0 0 48 48" fill="none" xmlns="http://www.w3.org/2000/svg">
<path d="M22.5206 6C22.0414 6 21.5618 6.20285 21.2626 6.47003C20.9633 6.73722 20.8094 7.0191 20.6825 7.24725C20.4287 7.70355 20.2929 7.9104 20.1777 7.96895L16.6069 9.78616H12.4597C11.1131 9.78616 10 10.8799 10 12.2029V39.5832C10 40.9063 11.1131 42 12.4597 42H34.5403C35.8869 42 37 40.9063 37 39.5832V12.2029C37 10.8799 35.8869 9.78616 34.5403 9.78616H30.6869L26.9918 8.05038C26.8036 7.8497 26.6339 7.53523 26.3477 7.09921C26.1934 6.86424 25.994 6.59541 25.6772 6.3701C25.3604 6.1448 24.9218 6 24.4794 6H22.5206ZM22.547 7.89493H24.4794C24.5629 7.89493 24.5285 7.89449 24.5472 7.91344C24.5659 7.93239 24.6343 7.98911 24.728 8.1318C24.9153 8.41699 25.1572 8.9888 25.7148 9.50858L25.8241 9.60851L29.2706 11.2296V12.6656C29.2706 13.1907 28.8711 13.5834 28.3365 13.5834H18.6635C18.2001 13.5834 17.7294 13.0129 17.7294 12.6656V11.3554L21.0667 9.66033C21.8859 9.24382 22.1747 8.51936 22.3737 8.16141C22.4654 7.99655 22.5286 7.9228 22.547 7.90233V7.89493ZM12.4597 11.6293H15.8008V12.6582C15.8008 14.1491 17.0228 15.471 18.6635 15.471H28.3365C29.906 15.471 31.1992 14.2003 31.1992 12.6582V11.6293H34.5403C34.8809 11.6293 35.1242 11.8683 35.1242 12.2029V39.5832C35.1242 39.9179 34.8809 40.1606 34.5403 40.1606H12.4597C12.1191 40.1606 11.8758 39.9179 11.8758 39.5832V12.2029C11.8758 11.8683 12.1191 11.6293 12.4597 11.6293ZM26.8449 18.2837L22.2419 23.0655L20.0798 21.0595L18.7539 22.4363L22.3172 25.745L28.2461 19.5865L26.8449 18.2837ZM15.7857 28.7355V30.6304H31.2143V28.7355H15.7857ZM15.7857 34.4203V36.3152H31.2143V34.4203H15.7857Z" fill="#A99587"/>
</svg>
