<svg width="48" height="48" viewBox="0 0 48 48" fill="none" xmlns="http://www.w3.org/2000/svg">
<path d="M31.6652 18.7826V9.5413H32.9091C33.2247 9.5413 33.4561 9.77265 33.4561 10.087V37.913C33.4561 38.2274 33.2247 38.4587 32.9091 38.4587H17.0288V9.5413H23.6985V18.7826C23.6985 18.9298 23.737 19.0745 23.8101 19.2022C23.8833 19.33 23.9885 19.4365 24.1155 19.5112C24.2424 19.5859 24.3867 19.6262 24.534 19.6282C24.6813 19.6302 24.8266 19.5938 24.9556 19.5226L24.9559 19.5224L27.6818 18.0085L30.4078 19.5224L30.4081 19.5226C30.537 19.5938 30.6823 19.6302 30.8296 19.6282C30.9769 19.6262 31.1212 19.5859 31.2481 19.5112C31.3751 19.4365 31.4804 19.33 31.5535 19.2022C31.6267 19.0745 31.6651 18.9298 31.6652 18.7826ZM27.2716 16.3035L25.3924 17.3434V9.5413H29.9712V17.3434L28.092 16.3035L28.092 16.3035C27.9664 16.2341 27.8253 16.1977 27.6818 16.1977C27.5384 16.1977 27.3972 16.2341 27.2717 16.3035L27.2716 16.3035ZM14.0909 7.85C12.862 7.85 11.85 8.85972 11.85 10.087V37.913C11.85 39.1403 12.862 40.15 14.0909 40.15H32.9091C34.138 40.15 35.15 39.1403 35.15 37.913V10.087C35.15 8.85972 34.138 7.85 32.9091 7.85H14.0909ZM14.0909 9.5413H15.3348V38.4587H14.0909C13.7753 38.4587 13.5439 38.2274 13.5439 37.913V10.087C13.5439 9.77265 13.7753 9.5413 14.0909 9.5413Z" fill="#3755BD" stroke="#3755BD" stroke-width="0.3"/>
</svg>
