<svg width="48" height="48" viewBox="0 0 48 48" fill="none" xmlns="http://www.w3.org/2000/svg">
<path d="M31.4319 33.5824C31.4319 34.0995 31.0124 34.5189 30.4953 34.5189H22.3962V38.9013H27.8453C28.3623 38.9013 28.7818 39.3208 28.7818 39.8378C28.7818 40.3549 28.3623 40.7743 27.8453 40.7743H15.2652C14.7481 40.7743 14.3287 40.3549 14.3287 39.8378C14.3287 39.3208 14.7481 38.9013 15.2652 38.9013H20.5232V34.5189H8.12972C5.30089 34.5189 3 32.2175 3 29.3892V12.6297C3 9.8009 5.30139 7.5 8.12972 7.5H34.7901C37.6189 7.5 39.9198 9.80139 39.9198 12.6297V19.9583C39.9198 20.4753 39.5003 20.8948 38.9833 20.8948C38.4663 20.8948 38.0468 20.4753 38.0468 19.9583V12.6297C38.0468 10.834 36.5858 9.37301 34.7901 9.37301H8.12972C6.33397 9.37301 4.87301 10.834 4.87301 12.6297V29.3892C4.87301 31.185 6.33397 32.6459 8.12972 32.6459H30.4953C31.0124 32.6459 31.4319 33.0654 31.4319 33.5824ZM45 26.0968V37.7157C45 39.659 43.4187 41.2404 41.4754 41.2404H36.4912C34.5479 41.2404 32.9666 39.659 32.9666 37.7157V26.0968C32.9666 24.1535 34.5479 22.5722 36.4912 22.5722H41.4754C43.4187 22.5727 45 24.1535 45 26.0968ZM43.127 26.0968C43.127 25.1861 42.3861 24.4452 41.4754 24.4452H36.4912C35.5805 24.4452 34.8396 25.1861 34.8396 26.0968V37.7157C34.8396 38.6265 35.5805 39.3673 36.4912 39.3673H41.4754C42.3861 39.3673 43.127 38.6265 43.127 37.7157V26.0968Z" fill="white"/>
</svg>
