<svg width="48" height="48" viewBox="0 0 48 48" fill="none" xmlns="http://www.w3.org/2000/svg">
<path d="M19.3286 21.9C19.4571 20.5286 21.6429 19.1143 23.1429 18.4286C24.6429 17.7857 26.0143 17.5286 25.8429 16.4143C25.6714 15.3 25.2429 14.4429 22.9286 14.4429C20.6143 14.4429 21.6 17.5286 19.7143 15.6857C17.7857 13.8429 20.1429 14.3143 21.0857 13.8857C22.0286 13.4571 23.0143 11.7429 21.3429 11.6143C19.6714 11.4857 20.0143 12.3429 18.7286 11.8714C17.4429 11.4 16.8 13.5429 15.9857 13.2429C15.4286 13.0286 13.9714 11.9571 12.9857 10.8429C11.0143 12.5143 9.42857 14.6143 8.35714 17.0143C8.65714 20.2286 10.3714 21.9 10.3714 21.9C10.3714 21.9 11.2286 24 16.5857 26.5714C16.5857 26.5714 17.6143 26.6143 16.4143 25.4571C15.2143 24.2571 13.9286 22.7571 15.3857 21.9857C16.8429 21.2143 17.3143 21.2571 17.6571 22.7143C18.0429 24.1286 19.2429 23.2714 19.3286 21.9ZM26.4 28.1571C24.3857 26.4429 24.6 25.6714 22.0286 25.6714C19.4571 25.6714 17.8714 26.2714 18.5143 29.8286C19.1571 33.3857 21.0857 31.8 20.9143 34.5429C20.7429 37.2857 21.3857 37.8857 21.8143 38.5286C22.2429 39.1714 23.4857 41.1 23.9571 38.4C24.4286 35.7 25.3286 34.2429 26.3571 32.9143C27.3429 31.6286 28.4143 29.9143 26.4 28.1571ZM41.1 22.4143C41.1 22.2429 41.0571 22.0714 41.0571 21.9C41.0143 21.5571 40.9714 21.1714 40.8857 20.8286C40.8429 20.6571 40.8 20.4857 40.7571 20.2714C40.6714 19.9286 40.5857 19.5857 40.5 19.2429C40.4571 19.0714 40.4143 18.9429 40.3714 18.7714C40.2429 18.3 40.0714 17.8714 39.8571 17.4C39.7714 17.2286 39.6857 17.0143 39.6 16.8429C39.4714 16.5857 39.3429 16.3286 39.2143 16.0714C39.0857 15.8571 38.9571 15.6429 38.8286 15.3857C38.7 15.1714 38.6143 15 38.4857 14.7857C38.3143 14.5286 38.1857 14.3143 38.0143 14.1C37.9286 13.9714 37.8429 13.8429 37.7571 13.7143C37.0714 12.8143 36.3429 12 35.5286 11.2286C35.4857 11.1857 35.4429 11.1429 35.3571 11.1C35.0571 10.8429 34.7571 10.5857 34.4571 10.3286L34.4143 10.2857C33.0429 9.25714 31.5429 8.4 29.9143 7.8C29.4429 8.57143 28.9286 9.55714 28.3714 9.9C27.5571 10.3714 27.6 12.3 29.1857 12.1286C29.1857 12.1286 28.7143 12.6 29.1857 14.3571C29.6571 16.1143 30.4714 16.4571 32.8286 15.4714C33.8571 15.0429 34.6286 15.2571 34.5 16.2857C34.2429 18.5143 32.5714 18.3857 33.8571 21.9429C34.6286 24.0857 36.5571 24.9429 37.2429 26.6143C37.6286 27.5143 39.1286 28.3714 40.4143 28.9714C40.5429 28.5429 40.6714 28.0714 40.7571 27.6C40.8 27.4286 40.8429 27.2571 40.8429 27.0857C40.8857 26.7429 40.9714 26.4 41.0143 26.0143C41.0143 25.8429 41.0571 25.6714 41.0571 25.5C41.1 24.9857 41.1429 24.4714 41.1429 23.9571C41.1857 23.4429 41.1429 22.9286 41.1 22.4143ZM34.5857 28.0286C33.9 28.4571 33.9429 29.3571 34.5 29.8714C35.0571 30.3857 36.2143 31.0286 36.5571 29.8714C36.9 28.7143 35.2714 27.6 34.5857 28.0286ZM24 3C12.3857 3 3 12.3857 3 24C3 35.6143 12.3857 45 24 45C35.6143 45 45 35.6143 45 24C45 12.3857 35.6143 3 24 3ZM24 43.0714C13.4571 43.0714 4.92857 34.5429 4.92857 24C4.92857 13.4571 13.4571 4.92857 24 4.92857C34.5429 4.92857 43.0714 13.4571 43.0714 24C43.0714 34.5429 34.5429 43.0714 24 43.0714Z" fill="white"/>
</svg>
