<svg width="48" height="48" viewBox="0 0 48 48" fill="none" xmlns="http://www.w3.org/2000/svg">
<path fill-rule="evenodd" clip-rule="evenodd" d="M28.9394 21.866C27.6257 20.602 25.8735 19.9037 24.0015 19.9037C22.1279 19.9037 20.3755 20.6022 19.0602 21.8679C18.7764 22.1391 18.3987 22.29 18.0002 22.29C17.604 22.29 17.2264 22.1418 16.9419 21.8679L12.3661 17.4662C12.0808 17.1916 11.9227 16.8214 11.9227 16.4304C11.9227 16.038 12.0834 15.6697 12.3676 15.3962C18.6918 9.31516 29.2012 9.20742 35.6339 15.3976C36.2222 15.9657 36.2247 16.8939 35.6361 17.464L31.0597 21.8679C30.4861 22.4162 29.502 22.4108 28.9394 21.866ZM18.5701 17.0698C18.4106 17.1772 18.2294 17.2268 18.0526 17.2268C17.77 17.2268 17.4879 17.0974 17.3088 16.8521L15.8924 14.9008C15.1797 15.3579 14.502 15.872 13.8735 16.4498L18.0036 20.3947C19.2551 19.2756 20.7924 18.5639 22.4466 18.282L24.0001 14.9307L25.5534 18.2834C27.2147 18.5655 28.7591 19.2824 30.0139 20.4104L34.127 16.4201C33.498 15.8486 32.8206 15.3401 32.1083 14.8876L30.6373 16.8601C30.4574 17.1019 30.177 17.2268 29.8996 17.2268C29.7159 17.2268 29.5334 17.1721 29.3749 17.0647L29.373 17.0634C28.9606 16.779 28.8614 16.2188 29.162 15.8152L30.5184 13.997C29.9602 13.7328 29.3827 13.5056 28.7914 13.3115L28.3753 14.3066C28.2301 14.6573 27.8831 14.8613 27.5308 14.8613C27.4205 14.8613 27.307 14.8417 27.1957 14.7982C26.7332 14.6195 26.4935 14.1033 26.6866 13.6387L27.0153 12.8488C26.3399 12.7144 25.6521 12.6258 24.9532 12.5827V13.4554C24.9532 13.9571 24.5324 14.3437 24.0416 14.3437C23.5509 14.3437 23.1301 13.9571 23.1301 13.4554V12.5764C22.3893 12.618 21.659 12.7128 20.9434 12.8582L21.2674 13.6406C21.458 14.1072 21.216 14.6222 20.754 14.8C20.6453 14.8414 20.5315 14.8613 20.4214 14.8613C20.0663 14.8613 19.722 14.6568 19.5757 14.306L19.1723 13.3278C18.5918 13.5212 18.025 13.7459 17.4768 14.0072L18.7969 15.8255C19.0897 16.2325 18.9856 16.7913 18.5701 17.0698ZM42 37.5004C42 39.9921 39.8951 42 37.3342 42L10.6658 41.9985C8.10333 41.9985 6 39.9906 6 37.4989V10.4996C6 8.00786 8.10494 6 10.6658 6H37.3342C39.8967 6 42 8.00793 42 10.4996V37.5004ZM7.82464 10.4996V37.5004C7.82464 38.9909 9.08882 40.2234 10.6658 40.2234H37.3342C38.9111 40.2234 40.1754 38.991 40.1754 37.4989V10.4996C40.1754 9.00756 38.9111 7.77514 37.3342 7.77514H10.6658C9.08892 7.77514 7.82464 9.00756 7.82464 10.4996ZM12.2325 29.5823C12.2325 29.081 12.6512 28.694 13.144 28.694H34.856C35.3478 28.694 35.7691 29.08 35.7691 29.5823C35.7691 30.0836 35.3503 30.4706 34.8575 30.4706H13.144C12.6533 30.4706 12.2325 30.0841 12.2325 29.5823ZM12.2371 32.9667C12.2371 32.4653 12.6559 32.0783 13.1486 32.0783H34.8513C35.3431 32.0783 35.7614 32.4658 35.7614 32.9667C35.7614 33.468 35.3426 33.855 34.8498 33.855H13.1486C12.6579 33.855 12.2371 33.4684 12.2371 32.9667ZM16.2371 35.4612H31.7613C32.253 35.4612 32.6713 35.8487 32.6713 36.3495C32.6713 36.8509 32.2525 37.2379 31.7598 37.2379H16.2371C15.7464 37.2379 15.3256 36.8513 15.3256 36.3495C15.3256 35.8482 15.7444 35.4612 16.2371 35.4612Z" fill="white"/>
</svg>
