<svg width="48" height="48" viewBox="0 0 48 48" fill="none" xmlns="http://www.w3.org/2000/svg">
<path d="M9.26522 35.0253H3.66767C2.97073 35.0252 2.28823 34.8266 1.69998 34.4529C1.11173 34.0791 0.642045 33.5456 0.345846 32.9148C0.0483116 32.2881 -0.0606541 31.5884 0.0322082 30.9009C0.12507 30.2134 0.415756 29.5677 0.868895 29.0424L11.0087 17.0122V3.91763C11.0087 3.67426 11.1054 3.44086 11.2775 3.26877C11.4496 3.09668 11.683 3 11.9264 3H19.2674C19.5108 3 19.7442 3.09668 19.9163 3.26877C20.0884 3.44086 20.185 3.67426 20.185 3.91763V15.7734C20.185 16.0168 20.0884 16.2502 19.9163 16.4223C19.7442 16.5944 19.5108 16.6911 19.2674 16.6911C19.024 16.6911 18.7906 16.5944 18.6185 16.4223C18.4465 16.2502 18.3498 16.0168 18.3498 15.7734V4.83526H12.844V17.3518C12.8469 17.5682 12.7683 17.7778 12.6238 17.939L2.2637 30.2261C2.03761 30.4873 1.89283 30.8088 1.84718 31.1512C1.80153 31.4936 1.857 31.8419 2.00676 32.1531C2.15486 32.4686 2.3897 32.7353 2.68383 32.9222C2.97795 33.1091 3.3192 33.2084 3.66767 33.2084H9.26522C9.50859 33.2084 9.742 33.3051 9.91408 33.4772C10.0862 33.6493 10.1829 33.8827 10.1829 34.1261C10.1829 34.3694 10.0862 34.6028 9.91408 34.7749C9.742 34.947 9.50859 35.0437 9.26522 35.0437V35.0253Z" fill="white"/>
<path d="M10.293 25.2067C10.1866 25.2066 10.081 25.1879 9.98097 25.1516C8.92459 24.7517 7.84237 24.4237 6.74173 24.1698C6.62123 24.1444 6.50689 24.0957 6.40524 24.0262C6.30359 23.9567 6.21663 23.8678 6.14931 23.7647C6.01336 23.5565 5.9657 23.3028 6.01681 23.0594C6.06791 22.8161 6.21361 22.6029 6.42184 22.467C6.63006 22.331 6.88377 22.2834 7.12714 22.3345C8.30873 22.608 9.47062 22.9606 10.605 23.3898C10.8077 23.4634 10.9781 23.606 11.0861 23.7928C11.1942 23.9795 11.233 24.1983 11.1957 24.4108C11.1585 24.6232 11.0476 24.8158 10.8825 24.9546C10.7174 25.0935 10.5087 25.1697 10.293 25.17V25.2067Z" fill="white"/>
<path d="M24.9751 44.0824C22.3435 44.0824 19.7709 43.302 17.5828 41.8399C15.3947 40.3779 13.6893 38.2998 12.6822 35.8686C11.6752 33.4373 11.4117 30.7619 11.9251 28.1809C12.4385 25.5999 13.7057 23.229 15.5666 21.3682C17.4274 19.5074 19.7982 18.2401 22.3793 17.7267C24.9603 17.2133 27.6356 17.4768 30.0669 18.4839C32.4982 19.491 34.5763 21.1964 36.0383 23.3845C37.5004 25.5726 38.2807 28.1451 38.2807 30.7767C38.2783 34.3048 36.8757 37.6878 34.3809 40.1825C31.8861 42.6773 28.5032 44.0799 24.9751 44.0824ZM24.9751 19.3063C22.7064 19.3063 20.4888 19.979 18.6025 21.2394C16.7162 22.4998 15.246 24.2912 14.3778 26.3872C13.5096 28.4831 13.2825 30.7894 13.7251 33.0145C14.1677 35.2395 15.2601 37.2833 16.8643 38.8875C18.4684 40.4917 20.5123 41.5841 22.7373 42.0267C24.9623 42.4693 27.2687 42.2421 29.3646 41.374C31.4605 40.5058 33.252 39.0356 34.5124 37.1493C35.7727 35.263 36.4455 33.0453 36.4455 30.7767C36.4406 27.7361 35.2306 24.8213 33.0805 22.6713C30.9304 20.5212 28.0157 19.3112 24.9751 19.3063Z" fill="white"/>
<path d="M38.2807 45C38.16 45.0007 38.0402 44.9775 37.9284 44.9319C37.8166 44.8862 37.7149 44.8189 37.6292 44.7339L33.041 40.1457C32.8683 39.9729 32.7712 39.7386 32.7712 39.4942C32.7712 39.2498 32.8683 39.0155 33.041 38.8427C33.2138 38.6699 33.4482 38.5728 33.6926 38.5728C33.9369 38.5728 34.1713 38.6699 34.3441 38.8427L38.9322 43.4308C39.0182 43.5161 39.0865 43.6176 39.1331 43.7295C39.1797 43.8413 39.2037 43.9612 39.2037 44.0824C39.2037 44.2035 39.1797 44.3234 39.1331 44.4353C39.0865 44.5471 39.0182 44.6486 38.9322 44.7339C38.8465 44.8189 38.7448 44.8862 38.633 44.9319C38.5212 44.9775 38.4015 45.0007 38.2807 45Z" fill="white"/>
<path d="M20.6438 4.83526H10.5499C10.3065 4.83526 10.0731 4.73858 9.90104 4.56649C9.72895 4.39441 9.63227 4.161 9.63227 3.91763C9.63227 3.67426 9.72895 3.44086 9.90104 3.26877C10.0731 3.09668 10.3065 3 10.5499 3H20.6438C20.8872 3 21.1206 3.09668 21.2927 3.26877C21.4648 3.44086 21.5615 3.67426 21.5615 3.91763C21.5615 4.161 21.4648 4.39441 21.2927 4.56649C21.1206 4.73858 20.8872 4.83526 20.6438 4.83526Z" fill="white"/>
<path d="M4.78718 16.5534C4.33346 16.5534 3.88992 16.4189 3.51266 16.1668C3.1354 15.9147 2.84136 15.5564 2.66773 15.1372C2.4941 14.7181 2.44867 14.2568 2.53718 13.8118C2.6257 13.3668 2.84419 12.958 3.16502 12.6372C3.48586 12.3163 3.89462 12.0979 4.33963 12.0093C4.78464 11.9208 5.2459 11.9663 5.66509 12.1399C6.08428 12.3135 6.44256 12.6076 6.69464 12.9848C6.94671 13.3621 7.08126 13.8056 7.08126 14.2593C7.08126 14.8678 6.83956 15.4513 6.40934 15.8815C5.97912 16.3117 5.39561 16.5534 4.78718 16.5534ZM4.78718 13.8005C4.69644 13.8005 4.60773 13.8274 4.53228 13.8778C4.45682 13.9283 4.39802 13.9999 4.36329 14.0838C4.32856 14.1676 4.31948 14.2598 4.33718 14.3488C4.35489 14.4378 4.39858 14.5196 4.46275 14.5838C4.52692 14.6479 4.60867 14.6916 4.69767 14.7093C4.78667 14.727 4.87892 14.718 4.96276 14.6832C5.0466 14.6485 5.11826 14.5897 5.16867 14.5142C5.21909 14.4388 5.246 14.3501 5.246 14.2593C5.246 14.1377 5.19766 14.0209 5.11161 13.9349C5.02557 13.8489 4.90887 13.8005 4.78718 13.8005Z" fill="white"/>
<path d="M7.99889 9.21236C7.87898 9.21091 7.76051 9.18597 7.65019 9.13895C7.53899 9.09248 7.43657 9.02731 7.34737 8.94625C7.26136 8.86095 7.1931 8.75945 7.14651 8.64763C7.09992 8.53581 7.07594 8.41587 7.07594 8.29473C7.07594 8.17359 7.09992 8.05366 7.14651 7.94183C7.1931 7.83001 7.26136 7.72852 7.34737 7.64321C7.43657 7.56216 7.53899 7.49698 7.65019 7.45051C7.8173 7.38024 8.00148 7.36104 8.17949 7.39534C8.3575 7.42963 8.52137 7.51589 8.65041 7.64321C8.77982 7.77156 8.86808 7.93555 8.90393 8.11425C8.93978 8.29296 8.9216 8.47829 8.85171 8.64663C8.78182 8.81496 8.66338 8.95867 8.51149 9.05942C8.3596 9.16018 8.18115 9.21342 7.99889 9.21236Z" fill="white"/>
<path d="M8.91652 12.8829C8.67356 12.8795 8.44085 12.7845 8.265 12.6168C8.17996 12.531 8.11267 12.4293 8.067 12.3175C8.02134 12.2057 7.99819 12.086 7.99889 11.9653C8.00227 11.7223 8.09732 11.4896 8.265 11.3137C8.37095 11.2033 8.50285 11.121 8.6487 11.0745C8.79455 11.0281 8.94971 11.0188 9.10005 11.0476C9.15754 11.0577 9.2132 11.0762 9.26522 11.1027C9.32159 11.121 9.37437 11.149 9.42122 11.1853L9.56804 11.2954C9.65405 11.3807 9.72231 11.4822 9.7689 11.594C9.81549 11.7058 9.83947 11.8258 9.83947 11.9469C9.83947 12.068 9.81549 12.188 9.7689 12.2998C9.72231 12.4116 9.65405 12.5131 9.56804 12.5984L9.42122 12.7085C9.37437 12.7449 9.32159 12.7728 9.26522 12.7911L9.10005 12.8829H8.91652Z" fill="white"/>
</svg>
