<svg width="48" height="48" viewBox="0 0 48 48" fill="none" xmlns="http://www.w3.org/2000/svg">
<path d="M44.324 8.50923H40.5383L41.2819 7.72606C41.4092 7.59176 41.4779 7.41246 41.4728 7.2276C41.4677 7.04274 41.3893 6.86747 41.2548 6.74034C41.1883 6.67739 41.1099 6.62815 41.0243 6.59544C40.9387 6.56273 40.8474 6.54718 40.7558 6.54969C40.5707 6.55475 40.3952 6.63305 40.2679 6.76734L39.4296 7.72606V3.67515C39.4296 3.49609 39.3584 3.32436 39.2316 3.19775C39.1048 3.07113 38.9329 3 38.7536 3C38.5743 3 38.4023 3.07113 38.2756 3.19775C38.1488 3.32436 38.0776 3.49609 38.0776 3.67515V9.07636L36.4551 10.6967V6.37575C36.4551 6.19669 36.3839 6.02497 36.2571 5.89835C36.1303 5.77174 35.9584 5.7006 35.7791 5.7006C35.5998 5.7006 35.4278 5.77174 35.3011 5.89835C35.1743 6.02497 35.1031 6.19669 35.1031 6.37575V11.9795L34.2242 12.8572C30.6585 9.54724 25.9342 7.76743 21.0679 7.90068C16.2016 8.03393 11.5821 10.0696 8.20325 13.5697C4.82443 17.0698 2.9563 21.7547 3.00078 26.6164C3.04525 31.478 4.99879 36.128 8.44109 39.5659C11.8834 43.0038 16.5394 44.9548 21.4073 44.9992C26.2752 45.0436 30.9661 43.1779 34.4708 39.8034C37.9754 36.429 40.0137 31.8154 40.1471 26.9553C40.2805 22.0953 38.4984 17.3771 35.1842 13.8159L36.036 12.9652H41.3224C41.5017 12.9652 41.6737 12.8941 41.8005 12.7675C41.9272 12.6409 41.9985 12.4691 41.9985 12.2901C41.9985 12.111 41.9272 11.9393 41.8005 11.8127C41.6737 11.6861 41.5017 11.6149 41.3224 11.6149H37.3745L39.1321 9.85953H44.324C44.5033 9.85953 44.6752 9.7884 44.802 9.66178C44.9288 9.53517 45 9.36344 45 9.18438C45 9.00532 44.9288 8.83359 44.802 8.70698C44.6752 8.58036 44.5033 8.50923 44.324 8.50923V8.50923ZM38.8077 26.3872C38.8211 30.3409 37.4706 34.1785 34.9834 37.2543C32.4961 40.3302 29.0239 42.4565 25.1511 43.2755C21.2782 44.0945 17.241 43.5563 13.7189 41.7513C10.1968 39.9463 7.40472 36.9848 5.81247 33.365C4.22022 29.7453 3.925 25.6882 4.97648 21.8766C6.02796 18.065 8.36197 14.7314 11.5858 12.4368C14.8096 10.1421 18.7264 9.02657 22.6771 9.27776C26.6278 9.52894 30.3714 11.1316 33.2778 13.8159L30.5737 16.5165C27.9831 14.1793 24.5806 12.9454 21.0919 13.078C17.6033 13.2106 14.3046 14.6993 11.8993 17.2265C9.4941 19.7537 8.17271 23.1194 8.21699 26.6059C8.26127 30.0923 9.66771 33.4234 12.1363 35.8889C14.605 38.3544 17.9404 39.759 21.4314 39.8032C24.9223 39.8474 28.2923 38.5278 30.8228 36.1256C33.3532 33.7235 34.8438 30.429 34.9766 26.9448C35.1094 23.4607 33.874 20.0626 31.5337 17.4752L34.2378 14.7746C37.1751 17.93 38.8078 22.0788 38.8077 26.3872ZM23.6242 26.3872C23.6269 26.7804 23.5126 27.1655 23.2959 27.4937C23.0791 27.8218 22.7697 28.0784 22.4067 28.2307C22.0438 28.383 21.6438 28.4242 21.2574 28.3492C20.8709 28.2741 20.5155 28.0861 20.2362 27.8091C19.9569 27.532 19.7663 27.1784 19.6885 26.793C19.6107 26.4076 19.6493 26.0078 19.7993 25.6443C19.9493 25.2808 20.204 24.97 20.5312 24.7513C20.8583 24.5326 21.2431 24.4158 21.6367 24.4158C21.9267 24.4161 22.213 24.4807 22.475 24.6048L21.123 25.9551C21.0599 26.0181 21.0099 26.0928 20.9758 26.1751C20.9417 26.2573 20.9242 26.3455 20.9242 26.4345C20.9242 26.5235 20.9417 26.6117 20.9758 26.6939C21.0099 26.7762 21.0599 26.8509 21.123 26.9138C21.186 26.9768 21.2608 27.0267 21.3432 27.0608C21.4255 27.0949 21.5138 27.1124 21.6029 27.1124C21.6921 27.1124 21.7803 27.0949 21.8627 27.0608C21.9451 27.0267 22.0199 26.9768 22.0829 26.9138L23.435 25.5635C23.5573 25.8211 23.6219 26.1022 23.6242 26.3872V26.3872ZM23.4755 23.6056C22.7844 23.1527 21.9496 22.9718 21.1327 23.0981C20.3158 23.2243 19.5748 23.6487 19.0531 24.289C18.5313 24.9294 18.2659 25.7402 18.3082 26.5647C18.3505 27.3892 18.6974 28.1687 19.282 28.7525C19.8665 29.3362 20.647 29.6828 21.4726 29.725C22.2981 29.7672 23.11 29.5021 23.7512 28.9811C24.3924 28.46 24.8172 27.72 24.9436 26.9041C25.07 26.0882 24.889 25.2546 24.4355 24.5643L26.7475 22.2553C27.7113 23.4177 28.2417 24.878 28.2482 26.3872C28.2482 27.6905 27.8613 28.9645 27.1363 30.0481C26.4113 31.1318 25.3808 31.9764 24.1752 32.4751C22.9696 32.9738 21.6429 33.1043 20.3631 32.8501C19.0832 32.5958 17.9075 31.9682 16.9848 31.0467C16.0621 30.1251 15.4337 28.951 15.1791 27.6728C14.9245 26.3945 15.0552 25.0696 15.5545 23.8655C16.0539 22.6615 16.8996 21.6323 17.9846 20.9083C19.0697 20.1842 20.3453 19.7978 21.6503 19.7978C23.1485 19.7883 24.6045 20.2936 25.774 21.2291L23.4755 23.6056ZM26.7475 20.3244C25.1771 19.0032 23.1565 18.3389 21.1075 18.4701C19.0585 18.6012 17.1393 19.5177 15.7507 21.0283C14.3621 22.5388 13.6114 24.5266 13.6552 26.5767C13.699 28.6269 14.5339 30.5809 15.9858 32.0309C17.4377 33.4809 19.3942 34.3148 21.447 34.3585C23.4998 34.4023 25.4901 33.6525 27.0026 32.2657C28.5151 30.8788 29.4327 28.9622 29.5641 26.9158C29.6954 24.8694 29.0302 22.8514 27.7074 21.2831L30.5467 18.4475C32.6308 20.7784 33.7225 23.8292 33.59 26.9513C33.4574 30.0735 32.111 33.021 29.8368 35.1674C27.5626 37.3138 24.54 38.4899 21.4113 38.4458C18.2826 38.4016 15.2945 37.1407 13.0819 34.931C10.8694 32.7213 9.60687 29.737 9.56267 26.6123C9.51847 23.4877 10.6961 20.4689 12.8452 18.1977C14.9944 15.9265 17.9457 14.5818 21.0719 14.4494C24.1981 14.317 27.2528 15.4074 29.5867 17.4887L26.7475 20.3244Z" fill="white"/>
</svg>
