<svg width="48" height="48" viewBox="0 0 48 48" fill="none" xmlns="http://www.w3.org/2000/svg">
<path d="M36.7994 11.0412C33.471 7.78226 29.1025 6 24.422 6C21.0416 6 17.8172 6.91659 15.0089 8.69885C14.3848 9.0553 14.2288 9.87005 14.5929 10.4811C14.9569 11.0922 15.789 11.2449 16.4131 10.8885C18.8053 9.41175 21.5617 8.597 24.422 8.597C32.6389 8.597 39.3477 15.1659 39.3477 23.2115C39.3477 31.2571 32.6389 37.826 24.422 37.826C23.4859 37.826 22.5498 37.7242 21.6657 37.5714L22.3938 36.1456C22.7578 35.4836 22.2377 34.6689 21.4577 34.7198L15.0609 34.9235C14.2288 34.9744 13.8128 35.8401 14.2808 36.5021L18.0253 41.5942C18.4933 42.2053 19.4294 42.1035 19.7415 41.4415L20.5215 39.9138C21.8217 40.2194 23.1218 40.3721 24.474 40.3721C29.1545 40.3721 33.523 38.5899 36.8514 35.3309C40.1798 32.0719 42 27.7945 42 23.2115C41.948 18.5776 40.1278 14.3002 36.7994 11.0412Z" fill="white"/>
<path d="M24.422 10.1247C23.6939 10.1247 23.1218 10.6848 23.1218 11.3977V23.568C23.1218 23.568 23.1218 23.6189 23.1738 23.6189C23.1738 23.6189 23.1738 23.6698 23.2259 23.6698C23.2259 23.6698 23.2259 23.7207 23.2779 23.7207C23.2779 23.7207 23.2779 23.7717 23.3299 23.7717L23.3819 23.8226C23.3819 23.8226 23.3819 23.8735 23.4339 23.8735L23.6419 24.0772L30.5067 29.1184C30.7667 29.2712 31.0267 29.373 31.2868 29.373C31.7028 29.373 32.0669 29.2203 32.3269 28.8638C32.7429 28.3037 32.6389 27.4889 32.0669 27.0816L25.7221 22.3968V11.3977C25.7221 10.6848 25.1501 10.1247 24.422 10.1247Z" fill="white"/>
<path d="M11.5307 15.8693C11.8754 15.2848 11.6708 14.5373 11.0739 14.1999C10.4769 13.8624 9.71359 14.0626 9.36892 14.6472C9.02426 15.2317 9.22878 15.9791 9.82574 16.3166C10.4227 16.6541 11.186 16.4538 11.5307 15.8693Z" fill="white"/>
<path d="M8.24814 24.3827C8.93747 24.3827 9.49629 23.8356 9.49629 23.1606C9.49629 22.4856 8.93747 21.9385 8.24814 21.9385C7.55881 21.9385 7 22.4856 7 23.1606C7 23.8356 7.55881 24.3827 8.24814 24.3827Z" fill="white"/>
<path d="M11.0442 32.1142C11.6412 31.7767 11.8457 31.0293 11.5011 30.4448C11.1564 29.8603 10.3931 29.66 9.7961 29.9975C9.19914 30.335 8.99462 31.0824 9.33928 31.6669C9.68395 32.2514 10.4473 32.4517 11.0442 32.1142Z" fill="white"/>
</svg>
