<svg width="115" height="36" viewBox="0 0 115 36" fill="none" xmlns="http://www.w3.org/2000/svg">
<path d="M81.0663 31.4704V29.6766C81.0769 29.5257 81.0547 29.3743 81.0011 29.2325C80.9475 29.0908 80.8638 28.9618 80.7555 28.8543C80.6472 28.7468 80.5168 28.6632 80.373 28.6091C80.2292 28.555 80.0753 28.5316 79.9216 28.5404C79.7204 28.5275 79.5194 28.5678 79.3394 28.6572C79.1595 28.7466 79.0073 28.8818 78.8988 29.0487C78.7998 28.8868 78.6582 28.7542 78.4889 28.6647C78.3196 28.5753 78.1288 28.5323 77.9368 28.5404C77.7693 28.5321 77.6026 28.5669 77.4531 28.6414C77.3036 28.7159 77.1765 28.8274 77.0844 28.965V28.6122H76.4512V31.4704H77.0905V29.8978C77.0769 29.8001 77.0854 29.7006 77.1155 29.6065C77.1456 29.5123 77.1965 29.4259 77.2646 29.3534C77.3326 29.2808 77.4162 29.2239 77.5092 29.1868C77.6023 29.1496 77.7025 29.1331 77.8028 29.1384C78.2229 29.1384 78.436 29.4075 78.436 29.8918V31.4824H79.0753V29.8978C79.0623 29.8002 79.0712 29.7009 79.1015 29.607C79.1318 29.5131 79.1828 29.4269 79.2507 29.3545C79.3186 29.2821 79.4019 29.2252 79.4947 29.1878C79.5875 29.1505 79.6875 29.1336 79.7877 29.1384C80.22 29.1384 80.427 29.4075 80.427 29.8918V31.4824L81.0663 31.4704ZM90.5248 28.6122H89.4836V27.7452H88.8443V28.6122H88.2659V29.1802H88.8565V30.4958C88.8565 31.1595 89.1183 31.5541 89.8672 31.5541C90.147 31.5551 90.4213 31.4784 90.6587 31.3329L90.4761 30.8007C90.3062 30.9002 90.1135 30.9557 89.9159 30.9622C89.6115 30.9622 89.4958 30.7708 89.4958 30.4838V29.1802H90.5308L90.5248 28.6122ZM95.9253 28.5404C95.7709 28.536 95.6181 28.5725 95.4831 28.6462C95.3481 28.7198 95.2358 28.8279 95.1581 28.959V28.6122H94.531V31.4704H95.1642V29.8679C95.1642 29.3955 95.3712 29.1324 95.7731 29.1324C95.9085 29.1306 96.043 29.155 96.1688 29.2042L96.3636 28.6062C96.219 28.5554 96.0667 28.5291 95.9131 28.5285L95.9253 28.5404ZM87.7606 28.8394C87.4022 28.6301 86.9901 28.5263 86.5733 28.5404C85.8366 28.5404 85.3556 28.8872 85.3556 29.4553C85.3556 29.9217 85.7088 30.2087 86.3602 30.2984L86.6646 30.3403C87.0117 30.3881 87.1761 30.4778 87.1761 30.6393C87.1761 30.8605 86.9447 30.9861 86.5124 30.9861C86.1647 30.996 85.8237 30.8907 85.5444 30.6871L85.2399 31.1714C85.6088 31.4244 86.0506 31.5543 86.5003 31.5422C87.3405 31.5422 87.8276 31.1535 87.8276 30.6094C87.8276 30.0652 87.444 29.844 86.8108 29.7543L86.5063 29.7124C86.2324 29.6766 86.0132 29.6227 86.0132 29.4314C86.0132 29.24 86.2202 29.0965 86.5672 29.0965C86.888 29.1002 87.2024 29.1846 87.4805 29.3417L87.7606 28.8394ZM104.72 28.5404C104.566 28.536 104.413 28.5725 104.278 28.6462C104.143 28.7198 104.031 28.8279 103.953 28.959V28.6122H103.326V31.4704H103.959V29.8679C103.959 29.3955 104.166 29.1324 104.568 29.1324C104.703 29.1306 104.838 29.155 104.964 29.2042L105.158 28.6062C105.014 28.5554 104.862 28.5291 104.708 28.5285L104.72 28.5404ZM96.5615 30.0353C96.554 30.2362 96.5892 30.4364 96.665 30.6231C96.7408 30.8098 96.8554 30.9789 97.0015 31.1196C97.1477 31.2603 97.3221 31.3695 97.5137 31.4402C97.7053 31.5109 97.9098 31.5416 98.1141 31.5302C98.4943 31.5492 98.8679 31.4276 99.1613 31.1894L98.8569 30.6871C98.638 30.851 98.3711 30.9412 98.0958 30.9442C97.8618 30.9256 97.6434 30.8212 97.4842 30.6517C97.325 30.4821 97.2366 30.26 97.2366 30.0293C97.2366 29.7987 97.325 29.5766 97.4842 29.407C97.6434 29.2375 97.8618 29.1331 98.0958 29.1145C98.3711 29.1175 98.638 29.2077 98.8569 29.3716L99.1613 28.8693C98.8679 28.6311 98.4943 28.5095 98.1141 28.5285C97.9098 28.5171 97.7053 28.5477 97.5137 28.6184C97.3221 28.6892 97.1477 28.7983 97.0015 28.9391C96.8554 29.0798 96.7408 29.2489 96.665 29.4356C96.5892 29.6223 96.554 29.8225 96.5615 30.0234V30.0353ZM102.492 30.0353V28.6122H101.859V28.959C101.751 28.8231 101.612 28.7143 101.453 28.6415C101.295 28.5687 101.12 28.5341 100.945 28.5404C100.542 28.5404 100.154 28.6979 99.8689 28.9783C99.5835 29.2586 99.4231 29.6389 99.4231 30.0353C99.4231 30.4318 99.5835 30.812 99.8689 31.0924C100.154 31.3727 100.542 31.5302 100.945 31.5302C101.12 31.5366 101.295 31.5019 101.453 31.4291C101.612 31.3564 101.751 31.2475 101.859 31.1116V31.4585H102.492V30.0353ZM100.135 30.0353C100.146 29.8671 100.206 29.7054 100.308 29.5702C100.41 29.435 100.551 29.3322 100.712 29.2745C100.873 29.2167 101.048 29.2065 101.215 29.2451C101.382 29.2837 101.534 29.3695 101.652 29.4918C101.77 29.6141 101.849 29.7677 101.88 29.9336C101.91 30.0995 101.89 30.2704 101.823 30.4254C101.755 30.5804 101.643 30.7127 101.5 30.8059C101.358 30.8992 101.19 30.9493 101.018 30.9502C100.898 30.9517 100.778 30.9287 100.667 30.8826C100.556 30.8365 100.456 30.7684 100.373 30.6824C100.29 30.5965 100.226 30.4947 100.185 30.3833C100.144 30.2719 100.127 30.1535 100.135 30.0353ZM92.4944 28.5404C92.0907 28.546 91.7058 28.7088 91.4243 28.9931C91.1429 29.2773 90.9879 29.6598 90.9936 30.0563C90.9992 30.4527 91.165 30.8308 91.4545 31.1072C91.7439 31.3836 92.1333 31.5358 92.537 31.5302C92.975 31.5523 93.4057 31.4138 93.7456 31.1415L93.4412 30.6811C93.2008 30.8705 92.903 30.9757 92.5949 30.9801C92.3855 30.9978 92.1775 30.9346 92.0149 30.8039C91.8523 30.6733 91.748 30.4855 91.7242 30.2805H93.8856C93.8856 30.2028 93.8856 30.125 93.8856 30.0413C93.8856 29.1444 93.3194 28.5464 92.5035 28.5464L92.4944 28.5404ZM92.4944 29.0965C92.5891 29.0946 92.6834 29.1109 92.7717 29.1447C92.86 29.1785 92.9407 29.229 93.0091 29.2935C93.0775 29.3579 93.1323 29.4349 93.1704 29.5201C93.2085 29.6053 93.2291 29.6971 93.2311 29.7902H91.709C91.72 29.5982 91.8071 29.4182 91.9516 29.2885C92.0961 29.1589 92.2866 29.09 92.4822 29.0965H92.4944ZM108.358 30.0413V27.4641H107.749V28.959C107.642 28.8231 107.503 28.7143 107.344 28.6415C107.185 28.5687 107.011 28.5341 106.836 28.5404C106.432 28.5404 106.045 28.6979 105.76 28.9783C105.474 29.2586 105.314 29.6389 105.314 30.0353C105.314 30.4318 105.474 30.812 105.76 31.0924C106.045 31.3727 106.432 31.5302 106.836 31.5302C107.011 31.5366 107.185 31.5019 107.344 31.4291C107.503 31.3564 107.642 31.2475 107.749 31.1116V31.4585H108.358V30.0413ZM109.414 31.0548C109.454 31.0544 109.493 31.0615 109.53 31.0758C109.565 31.0898 109.597 31.1101 109.624 31.1356C109.651 31.1613 109.673 31.1918 109.688 31.2253C109.704 31.2602 109.712 31.2978 109.712 31.3359C109.712 31.3739 109.704 31.4116 109.688 31.4465C109.673 31.48 109.651 31.5104 109.624 31.5362C109.597 31.5617 109.565 31.582 109.53 31.596C109.494 31.6118 109.454 31.6199 109.414 31.6199C109.357 31.6195 109.3 31.603 109.252 31.5723C109.203 31.5416 109.165 31.4979 109.14 31.4465C109.125 31.4115 109.117 31.3739 109.117 31.3359C109.117 31.2979 109.125 31.2602 109.14 31.2253C109.156 31.1918 109.178 31.1613 109.204 31.1356C109.232 31.1101 109.264 31.0898 109.299 31.0758C109.338 31.0603 109.381 31.0532 109.423 31.0548H109.414ZM109.414 31.5601C109.445 31.5603 109.475 31.5542 109.503 31.5422C109.529 31.5307 109.553 31.5145 109.573 31.4943C109.611 31.4535 109.632 31.4002 109.632 31.3449C109.632 31.2895 109.611 31.2362 109.573 31.1954C109.553 31.1752 109.529 31.1589 109.503 31.1475C109.475 31.1356 109.445 31.1295 109.414 31.1296C109.384 31.1297 109.354 31.1358 109.326 31.1475C109.299 31.1585 109.274 31.1748 109.253 31.1954C109.215 31.2362 109.194 31.2895 109.194 31.3449C109.194 31.4002 109.215 31.4535 109.253 31.4943C109.274 31.5148 109.299 31.5311 109.326 31.5422C109.357 31.5552 109.39 31.5613 109.423 31.5601H109.414ZM109.433 31.2043C109.461 31.203 109.489 31.2114 109.512 31.2283C109.521 31.2358 109.528 31.2455 109.533 31.2564C109.538 31.2673 109.54 31.2792 109.539 31.291C109.54 31.301 109.538 31.3109 109.534 31.3201C109.531 31.3294 109.525 31.3378 109.518 31.3449C109.5 31.3606 109.478 31.3701 109.454 31.3718L109.542 31.4704H109.472L109.39 31.3718H109.363V31.4704H109.305V31.2073L109.433 31.2043ZM109.366 31.2552V31.3269H109.433C109.445 31.3304 109.457 31.3304 109.469 31.3269C109.471 31.3227 109.472 31.3181 109.472 31.3135C109.472 31.3088 109.471 31.3042 109.469 31.3C109.471 31.2958 109.472 31.2912 109.472 31.2866C109.472 31.2819 109.471 31.2773 109.469 31.2731C109.457 31.2696 109.445 31.2696 109.433 31.2731L109.366 31.2552ZM106.017 30.0413C106.027 29.8731 106.087 29.7114 106.19 29.5762C106.292 29.441 106.432 29.3382 106.594 29.2804C106.755 29.2227 106.93 29.2125 107.097 29.2511C107.264 29.2897 107.416 29.3755 107.534 29.4978C107.652 29.6201 107.731 29.7737 107.761 29.9396C107.792 30.1055 107.772 30.2764 107.704 30.4314C107.637 30.5864 107.525 30.7187 107.382 30.8119C107.239 30.9052 107.071 30.9553 106.9 30.9562C106.779 30.9577 106.66 30.9347 106.549 30.8886C106.438 30.8425 106.338 30.7744 106.255 30.6884C106.172 30.6025 106.108 30.5006 106.067 30.3893C106.026 30.2779 106.009 30.1594 106.017 30.0413ZM84.6372 30.0413V28.6122H84.004V28.959C83.8964 28.8231 83.7575 28.7143 83.5987 28.6415C83.4399 28.5687 83.2658 28.5341 83.0907 28.5404C82.687 28.5404 82.2998 28.6979 82.0144 28.9783C81.7289 29.2586 81.5686 29.6389 81.5686 30.0353C81.5686 30.4318 81.7289 30.812 82.0144 31.0924C82.2998 31.3727 82.687 31.5302 83.0907 31.5302C83.2658 31.5366 83.4399 31.5019 83.5987 31.4291C83.7575 31.3564 83.8964 31.2475 84.004 31.1116V31.4585H84.6372V30.0413ZM82.2809 30.0413C82.291 29.8731 82.351 29.7114 82.4535 29.5762C82.5559 29.441 82.6964 29.3382 82.8576 29.2804C83.0188 29.2227 83.1937 29.2125 83.3608 29.2511C83.5278 29.2897 83.6797 29.3755 83.7978 29.4978C83.9158 29.6201 83.9948 29.7737 84.0251 29.9396C84.0555 30.1055 84.0357 30.2764 83.9683 30.4314C83.9009 30.5864 83.7889 30.7187 83.6459 30.8119C83.503 30.9052 83.3354 30.9553 83.1638 30.9562C83.0427 30.9585 82.9225 30.9361 82.8107 30.8904C82.699 30.8447 82.5981 30.7767 82.5145 30.6907C82.4309 30.6046 82.3665 30.5025 82.3252 30.3907C82.2839 30.2789 82.2668 30.1599 82.2748 30.0413H82.2809Z" fill="#020509"/>
<path d="M97.1392 6.83167H87.5498V23.7568H97.1392V6.83167Z" fill="#FF5F00"/>
<path d="M88.1586 15.2955C88.1568 13.6652 88.5328 12.056 89.258 10.5895C89.9832 9.1231 91.0387 7.83795 92.3444 6.83141C90.7277 5.58354 88.7861 4.80756 86.7415 4.59216C84.6969 4.37677 82.6319 4.73064 80.7824 5.61335C78.9329 6.49605 77.3736 7.87196 76.2827 9.58384C75.1918 11.2957 74.6133 13.2745 74.6133 15.294C74.6133 17.3135 75.1918 19.2923 76.2827 21.0041C77.3736 22.716 78.9329 24.0919 80.7824 24.9746C82.6319 25.8573 84.6969 26.2112 86.7415 25.9958C88.7861 25.7804 90.7277 25.0044 92.3444 23.7566C91.0391 22.7503 89.9839 21.4657 89.2587 19.9998C88.5335 18.5339 88.1573 16.9252 88.1586 15.2955Z" fill="#EB001B"/>
<path d="M110.077 15.2958C110.077 17.3154 109.499 19.2943 108.408 21.0062C107.317 22.7182 105.757 24.0941 103.907 24.9766C102.058 25.8592 99.9924 26.2129 97.9477 25.9972C95.903 25.7815 93.9614 25.0051 92.3447 23.7568C93.6496 22.7497 94.7045 21.4647 95.4299 19.9987C96.1553 18.5328 96.5322 16.9242 96.5322 15.2943C96.5322 13.6644 96.1553 12.0557 95.4299 10.5898C94.7045 9.12382 93.6496 7.8388 92.3447 6.83167C93.9614 5.58341 95.903 4.80706 97.9477 4.59135C99.9924 4.37565 102.058 4.7293 103.907 5.61187C105.757 6.49445 107.317 7.87034 108.408 9.58228C109.499 11.2942 110.077 13.2731 110.077 15.2928V15.2958Z" fill="#F79E1B"/>
<path d="M109.031 21.963V21.6162H109.174V21.5444H108.812V21.6162H108.967V21.963H109.031ZM109.734 21.963V21.5444H109.624L109.496 21.8434L109.369 21.5444H109.271V21.963H109.35V21.6491L109.469 21.9211H109.551L109.67 21.6491V21.966L109.734 21.963Z" fill="#F79E1B"/>
<path d="M26.7238 24.798H23.2236L25.4129 11.2456H28.9129L26.7238 24.798Z" fill="#00579F"/>
<path d="M39.4118 11.577C38.7214 11.3028 37.6263 11 36.2724 11C32.8158 11 30.3817 12.8453 30.3668 15.4836C30.3381 17.4301 32.1095 18.5113 33.4344 19.1603C34.7886 19.8235 35.2489 20.2564 35.2489 20.8475C35.2351 21.7554 34.1547 22.1739 33.1469 22.1739C31.7495 22.1739 31.0007 21.9582 29.8628 21.4531L29.4019 21.2365L28.9121 24.2787C29.733 24.6532 31.2455 24.9854 32.8158 25C36.4884 25 38.8795 23.1832 38.9078 20.3717C38.9218 18.829 37.9864 17.6468 35.9697 16.6809C34.7455 16.0608 33.9958 15.6427 33.9958 15.0082C34.0102 14.4314 34.6299 13.8406 36.0119 13.8406C37.1497 13.8117 37.9858 14.0855 38.6192 14.3595L38.9357 14.5034L39.4118 11.577Z" fill="#00579F"/>
<path d="M44.0638 19.9969C44.3521 19.2183 45.4613 16.205 45.4613 16.205C45.4467 16.2339 45.7489 15.4121 45.9218 14.9075L46.1664 16.0753C46.1664 16.0753 46.8292 19.3193 46.9732 19.9969C46.4261 19.9969 44.7552 19.9969 44.0638 19.9969ZM48.3844 11.2456H45.677C44.8421 11.2456 44.2078 11.4905 43.8475 12.3701L38.6484 24.7978H42.3211C42.3211 24.7978 42.9257 23.1251 43.0557 22.7648C43.4586 22.7648 47.0313 22.7648 47.5497 22.7648C47.6502 23.2407 47.9673 24.7978 47.9673 24.7978H51.2082L48.3844 11.2456Z" fill="#00579F"/>
<path d="M20.2999 11.2456L16.872 20.487L16.4975 18.6128C15.8637 16.4501 13.8762 14.1004 11.6582 12.9321L14.798 24.7836H18.4994L24.0011 11.2456H20.2999Z" fill="#00579F"/>
<path d="M13.6891 11.2456H8.05761L8 11.5194C12.3929 12.6441 15.3022 15.355 16.4976 18.6133L15.2733 12.3848C15.0718 11.5192 14.4524 11.2742 13.6891 11.2456Z" fill="#FAA61A"/>
</svg>
