<svg width="20" height="20" viewBox="0 0 20 20" fill="none" xmlns="http://www.w3.org/2000/svg">
<path d="M14.4579 6.40859C14.2459 6.62066 14.0324 6.83412 13.8203 7.04619C13.313 7.55351 12.8071 8.05943 12.2998 8.56675C11.6844 9.18218 11.0689 9.7976 10.4535 10.413C9.92539 10.9411 9.3959 11.4706 8.86779 11.9987C8.77841 12.0881 8.40837 12.4635 8.40837 12.4635C8.40837 12.4635 7.8005 11.8587 7.53991 11.5982C7.22526 11.2835 6.91062 10.9689 6.59736 10.6556C6.37974 10.438 6.16074 10.219 5.94312 10.0014C5.73798 9.79622 5.36096 9.78097 5.15859 10.0014C4.95483 10.2231 4.93958 10.5669 5.15859 10.7859C5.48709 11.1144 5.8156 11.4429 6.1441 11.7714C6.40053 12.0278 6.65696 12.2843 6.91339 12.5407C7.25021 12.8775 7.57872 13.224 7.92386 13.5512C8.19415 13.8076 8.60305 13.8215 8.87611 13.5609C8.8872 13.5498 8.89967 13.5373 8.91076 13.5262C8.97591 13.4611 9.04244 13.3945 9.10759 13.3294C9.37649 13.0605 9.64678 12.7902 9.91569 12.5213C10.3107 12.1263 10.7071 11.7298 11.1022 11.3348C11.5499 10.8871 11.9976 10.4394 12.4453 9.99166C12.8709 9.56613 13.2964 9.14059 13.7219 8.71506C14.0546 8.3824 14.3872 8.04973 14.7199 7.71707C14.8876 7.54935 15.054 7.38302 15.2217 7.2153C15.2286 7.20837 15.2369 7.20005 15.2439 7.19312C15.449 6.98798 15.4642 6.61096 15.2439 6.40859C15.0207 6.20483 14.6769 6.18958 14.4579 6.40859Z" fill="white"/>
</svg>
