<svg width="11" height="8" viewBox="0 0 11 8" fill="none" xmlns="http://www.w3.org/2000/svg">
<path d="M9.45794 0.408587C9.24587 0.62066 9.03241 0.83412 8.82033 1.04619C8.31302 1.55351 7.80709 2.05943 7.29978 2.56675C6.68435 3.18218 6.06892 3.7976 5.45349 4.41303C4.92539 4.94114 4.3959 5.47063 3.86779 5.99873C3.77841 6.08811 3.40837 6.46355 3.40837 6.46355C3.40837 6.46355 2.8005 5.85874 2.53991 5.59815C2.22526 5.2835 1.91062 4.96886 1.59736 4.6556C1.37974 4.43798 1.16074 4.21898 0.94312 4.00136C0.737977 3.79622 0.360958 3.78097 0.158587 4.00136C-0.04517 4.22314 -0.0604171 4.56689 0.158587 4.78589C0.487093 5.1144 0.815599 5.44291 1.1441 5.77141C1.40053 6.02784 1.65696 6.28427 1.91339 6.5407C2.25021 6.87752 2.57872 7.22405 2.92386 7.55117C3.19415 7.8076 3.60305 7.82146 3.87611 7.56087C3.8872 7.54978 3.89967 7.53731 3.91076 7.52622C3.97591 7.46107 4.04244 7.39454 4.10759 7.32939C4.37649 7.06049 4.64678 6.7902 4.91569 6.52129C5.31073 6.12626 5.70715 5.72983 6.10219 5.33479C6.5499 4.88708 6.99761 4.43937 7.44532 3.99166C7.87085 3.56613 8.29639 3.14059 8.72192 2.71506C9.05458 2.3824 9.38725 2.04973 9.71991 1.71707C9.88763 1.54935 10.054 1.38302 10.2217 1.2153C10.2286 1.20837 10.2369 1.20005 10.2439 1.19312C10.449 0.987977 10.4642 0.610958 10.2439 0.408587C10.0207 0.20483 9.67694 0.189583 9.45794 0.408587Z" fill="white"/>
</svg>
