<svg width="30" height="30" viewBox="0 0 30 30" fill="none" xmlns="http://www.w3.org/2000/svg">
<rect width="30" height="30" rx="15" fill="#2CAD2C"/>
<path d="M20.7276 10.2114C20.4422 10.4942 20.1549 10.7788 19.8695 11.0616C19.1869 11.738 18.506 12.4126 17.8233 13.089C16.9952 13.9096 16.167 14.7301 15.3388 15.5507C14.6281 16.2549 13.9156 16.9608 13.2049 17.665C13.0846 17.7842 12.5867 18.2847 12.5867 18.2847C12.5867 18.2847 11.7686 17.4783 11.418 17.1309C10.9945 16.7113 10.5711 16.2918 10.1496 15.8741C9.85672 15.584 9.56201 15.292 9.26916 15.0018C8.9931 14.7283 8.48574 14.708 8.21341 15.0018C7.93921 15.2975 7.9187 15.7559 8.21341 16.0479C8.65548 16.4859 9.09755 16.9239 9.53963 17.3619C9.8847 17.7038 10.2298 18.0457 10.5749 18.3876C11.0281 18.8367 11.4702 19.2987 11.9346 19.7349C12.2984 20.0768 12.8486 20.0953 13.2161 19.7478C13.231 19.733 13.2478 19.7164 13.2627 19.7016C13.3504 19.6148 13.4399 19.5261 13.5276 19.4392C13.8895 19.0807 14.2532 18.7203 14.6151 18.3617C15.1467 17.835 15.6801 17.3064 16.2117 16.7797C16.8142 16.1828 17.4167 15.5858 18.0192 14.9889C18.5918 14.4215 19.1645 13.8541 19.7371 13.2867C20.1848 12.8432 20.6324 12.3996 21.0801 11.9561C21.3058 11.7325 21.5296 11.5107 21.7553 11.2871C21.7647 11.2778 21.7759 11.2667 21.7852 11.2575C22.0613 10.984 22.0818 10.4813 21.7852 10.2114C21.4849 9.93977 21.0223 9.91944 20.7276 10.2114Z" fill="white"/>
</svg>
