<svg width="80" height="80" viewBox="0 0 80 80" fill="none" xmlns="http://www.w3.org/2000/svg">
<circle opacity="0.1" cx="40" cy="40" r="40" fill="#3755BD"/>
<path d="M55.4 28.8991L53.5231 30.7392C56.1868 33.7361 57.8 37.6539 57.8 41.9412C57.8 51.3625 50.0098 59 40.4 59C30.7902 59 23 51.3625 23 41.9412C23 32.9153 30.15 25.5266 39.2 24.9223V21.3529H36.8C36.1373 21.3529 35.6 20.8262 35.6 20.1765C35.6 19.5267 36.1373 19 36.8 19H44C44.6627 19 45.2 19.5267 45.2 20.1765C45.2 20.8262 44.6627 21.3529 44 21.3529H41.6V24.9223C45.5022 25.1829 49.0512 26.7048 51.826 29.0754L53.7029 27.2353L52.1515 25.7142C51.6828 25.2548 51.6828 24.5099 52.1515 24.0505C52.6201 23.591 53.3799 23.591 53.8485 24.0505L58.6485 28.7563C59.1172 29.2158 59.1172 29.9607 58.6485 30.4201C58.1799 30.8796 57.4201 30.8796 56.9515 30.4201L55.4 28.8991ZM40.4 56.6471C48.6843 56.6471 55.4 50.063 55.4 41.9412C55.4 33.8193 48.6843 27.2353 40.4 27.2353C32.1157 27.2353 25.4 33.8193 25.4 41.9412C25.4 50.063 32.1157 56.6471 40.4 56.6471ZM52.3407 44.2941H39.2C38.5373 44.2941 38 43.7674 38 43.1176V30.2346C38 29.6298 38.4676 29.1236 39.0814 29.0638C39.5178 29.0214 39.9576 29 40.4 29C47.6902 29 53.6 34.794 53.6 41.9412C53.6 42.3749 53.5782 42.8061 53.5349 43.2339C53.4739 43.8357 52.9576 44.2941 52.3407 44.2941ZM40.4 31.3529V41.9412H51.2C51.2 36.0935 46.3647 31.3529 40.4 31.3529ZM29 43.1176C28.3373 43.1176 27.8 42.5909 27.8 41.9412C27.8 41.2914 28.3373 40.7647 29 40.7647H31.4C32.0627 40.7647 32.6 41.2914 32.6 41.9412C32.6 42.5909 32.0627 43.1176 31.4 43.1176H29ZM41.6 53.1176C41.6 53.7674 41.0627 54.2941 40.4 54.2941C39.7373 54.2941 39.2 53.7674 39.2 53.1176V50.7647C39.2 50.115 39.7373 49.5882 40.4 49.5882C41.0627 49.5882 41.6 50.115 41.6 50.7647V53.1176Z" fill="#3755BD"/>
</svg>
