<svg width="80" height="80" viewBox="0 0 80 80" fill="none" xmlns="http://www.w3.org/2000/svg">
<circle opacity="0.1" cx="40" cy="40" r="40" fill="#3755BD"/>
<path d="M40.0112 30.1553C41.2339 30.1553 42.4292 29.7924 43.4459 29.1126C44.4626 28.4328 45.2551 27.4665 45.7232 26.336C46.1913 25.2054 46.314 23.9613 46.0758 22.7609C45.8376 21.5606 45.2492 20.4578 44.385 19.5921C43.5208 18.7264 42.4195 18.1367 41.2204 17.8973C40.0213 17.658 38.7783 17.7799 37.6484 18.2476C36.5185 18.7153 35.5525 19.5077 34.8725 20.5248C34.1926 21.542 33.8291 22.738 33.8282 23.9618C33.8294 25.6032 34.4811 27.1771 35.6403 28.3382C36.7994 29.4993 38.3714 30.1528 40.0112 30.1553ZM40.0112 19.6642C40.8605 19.6642 41.6906 19.9163 42.3967 20.3885C43.1028 20.8607 43.6531 21.5319 43.9781 22.3172C44.303 23.1025 44.3881 23.9666 44.2224 24.8002C44.0567 25.6339 43.6478 26.3997 43.0473 27.0007C42.4468 27.6017 41.6818 28.011 40.8489 28.1768C40.016 28.3427 39.1527 28.2576 38.3681 27.9323C37.5836 27.607 36.913 27.0562 36.4412 26.3494C35.9694 25.6427 35.7176 24.8118 35.7176 23.9618C35.7188 22.8224 36.1716 21.73 36.9766 20.9244C37.7815 20.1187 38.8729 19.6655 40.0112 19.6642Z" fill="#3755BD"/>
<path d="M29.3881 42.2207V42.6462C29.3881 42.897 29.4876 43.1375 29.6648 43.3148C29.842 43.4921 30.0823 43.5917 30.3328 43.5917H49.6991C49.9497 43.5917 50.19 43.4921 50.3671 43.3148C50.5443 43.1375 50.6438 42.897 50.6438 42.6462V42.2207C50.6438 39.7129 49.6485 37.3078 47.8769 35.5345C46.1052 33.7612 43.7023 32.765 41.1968 32.765H38.8351C36.3296 32.765 33.9267 33.7612 32.1551 35.5345C30.3834 37.3078 29.3881 39.7129 29.3881 42.2207ZM38.8351 34.6562H41.1968C43.1144 34.6516 44.962 35.3768 46.3652 36.6848C47.7685 37.9928 48.6226 39.7859 48.7544 41.7006H31.2964C31.428 39.7891 32.2794 37.9988 33.6787 36.6913C35.078 35.3838 36.9208 34.6564 38.8351 34.6562Z" fill="#3755BD"/>
<path d="M39.0666 48.1872V54.1348C38.0898 54.3666 37.2322 54.9493 36.6565 55.7723C36.0808 56.5953 35.8271 57.6014 35.9437 58.5993C36.0603 59.5972 36.5389 60.5175 37.2888 61.1854C38.0386 61.8533 39.0075 62.2223 40.0112 62.2223C41.015 62.2223 41.9839 61.8533 42.7337 61.1854C43.4836 60.5175 43.9622 59.5972 44.0788 58.5993C44.1954 57.6014 43.9417 56.5953 43.366 55.7723C42.7903 54.9493 41.9327 54.3666 40.9559 54.1348V48.1872H39.0666ZM42.2171 58.1156C42.2181 58.5525 42.0895 58.9798 41.8477 59.3435C41.6058 59.7072 41.2617 59.991 40.8587 60.1588C40.4557 60.3266 40.012 60.371 39.5838 60.2864C39.1556 60.2017 38.7621 59.9918 38.4531 59.6832C38.1442 59.3746 37.9336 58.9812 37.8481 58.5528C37.7626 58.1244 37.806 57.6802 37.9728 57.2765C38.1397 56.8728 38.4224 56.5277 38.7852 56.2849C39.1481 56.0421 39.5748 55.9124 40.0112 55.9124C40.5955 55.9124 41.1558 56.1444 41.5694 56.5574C41.9829 56.9705 42.2159 57.5309 42.2171 58.1156Z" fill="#3755BD"/>
<path d="M58.8013 51.1941C58.1493 50.5436 57.2974 50.132 56.383 50.0256C55.4685 49.9192 54.545 50.1243 53.7613 50.6078L49.5622 46.4048L48.2254 47.7428L52.4246 51.9458C52.0223 52.6009 51.8124 53.3563 51.8191 54.1252C51.8257 54.8942 52.0486 55.6458 52.4622 56.2939C52.8758 56.9419 53.4634 57.4603 54.1577 57.7896C54.852 58.119 55.6249 58.2459 56.3879 58.156C57.151 58.066 57.8733 57.7628 58.4721 57.281C59.0709 56.7993 59.5221 56.1584 59.774 55.4319C60.0258 54.7054 60.0682 53.9226 59.8961 53.1731C59.7241 52.4236 59.3447 51.7377 58.8013 51.1941ZM57.4882 55.6524C57.1801 55.9599 56.7879 56.1691 56.3611 56.2535C55.9343 56.338 55.492 56.294 55.0902 56.1271C54.6884 55.9601 54.345 55.6777 54.1034 55.3156C53.8618 54.9534 53.7329 54.5277 53.7329 54.0922C53.7329 53.6568 53.8618 53.2311 54.1034 52.8689C54.345 52.5067 54.6884 52.2243 55.0902 52.0574C55.492 51.8905 55.9343 51.8464 56.3611 51.9309C56.7879 52.0154 57.1801 52.2246 57.4882 52.5321C57.9012 52.946 58.1332 53.5072 58.1332 54.0922C58.1332 54.6773 57.9012 55.2384 57.4882 55.6524Z" fill="#3755BD"/>
<path d="M24.1167 58.1865C24.8451 58.1867 25.5603 57.9921 26.1884 57.623C26.8165 57.254 27.3348 56.7237 27.6897 56.087C28.0445 55.4504 28.2231 54.7304 28.207 54.0016C28.1909 53.2727 27.9806 52.5614 27.5979 51.9411L31.7971 47.738L30.4603 46.4001L26.2612 50.6031C25.7232 50.266 25.1142 50.0588 24.4824 49.9979C23.8506 49.9371 23.2133 50.0242 22.621 50.2525C22.0286 50.4807 21.4975 50.8438 21.0695 51.313C20.6416 51.7822 20.3286 52.3446 20.1554 52.9558C19.9821 53.5669 19.9533 54.2101 20.0713 54.8343C20.1892 55.4586 20.4507 56.0468 20.835 56.5524C21.2193 57.058 21.7159 57.4672 22.2855 57.7475C22.855 58.0278 23.482 58.1717 24.1167 58.1676V58.1865ZM22.5579 52.5131C22.8663 52.2041 23.2594 51.9935 23.6873 51.9081C24.1153 51.8226 24.559 51.8662 24.9622 52.0332C25.3655 52.2002 25.7102 52.4832 25.9527 52.8464C26.1952 53.2095 26.3246 53.6365 26.3246 54.0733C26.3246 54.5101 26.1952 54.9371 25.9527 55.3003C25.7102 55.6634 25.3655 55.9464 24.9622 56.1134C24.559 56.2805 24.1153 56.324 23.6873 56.2386C23.2594 56.1531 22.8663 55.9426 22.5579 55.6335C22.1452 55.2247 21.911 54.6689 21.9066 54.0877C21.9022 53.5065 22.1279 52.9471 22.5343 52.5321L22.5579 52.5131Z" fill="#3755BD"/>
</svg>
