<svg width="80" height="80" viewBox="0 0 80 80" fill="none" xmlns="http://www.w3.org/2000/svg">
<circle opacity="0.1" cx="40" cy="40" r="40" fill="#3755BD"/>
<path fill-rule="evenodd" clip-rule="evenodd" d="M34.0813 49.1291V40.8746H35.748V44.5401L39.1151 40.8746H41.3561L38.248 44.0897L41.525 49.1291H39.3685L37.0994 45.2552L35.748 46.6347V49.1291H34.0813ZM42.2929 49.5232L44.1004 49.7428C44.1304 49.953 44.1998 50.0975 44.3087 50.1764C44.4588 50.289 44.6953 50.3453 45.0182 50.3453C45.4311 50.3453 45.7408 50.2834 45.9472 50.1595C46.0861 50.0769 46.1912 49.9436 46.2625 49.7597C46.3113 49.6283 46.3357 49.3862 46.3357 49.0334V48.1606C45.8627 48.8063 45.2659 49.1291 44.5452 49.1291C43.7419 49.1291 43.1056 48.7894 42.6364 48.1099C42.2685 47.5731 42.0846 46.905 42.0846 46.1054C42.0846 45.1032 42.3258 44.3374 42.8081 43.8081C43.2905 43.2788 43.8901 43.0142 44.6071 43.0142C45.3466 43.0142 45.9566 43.3389 46.4371 43.9883V43.1493H47.9179V48.5153C47.9179 49.221 47.8597 49.7484 47.7434 50.0975C47.627 50.4466 47.4637 50.7207 47.2535 50.9196C47.0433 51.1186 46.7627 51.2743 46.4117 51.387C46.0608 51.4996 45.6169 51.5559 45.0801 51.5559C44.0666 51.5559 43.3477 51.3823 42.9236 51.035C42.4994 50.6878 42.2873 50.2477 42.2873 49.7147C42.2873 49.6621 42.2892 49.5983 42.2929 49.5232ZM43.7062 46.0153C43.7062 46.6497 43.8292 47.1142 44.075 47.4089C44.3209 47.7036 44.624 47.8509 44.9844 47.8509C45.371 47.8509 45.6976 47.6998 45.9641 47.3977C46.2306 47.0955 46.3639 46.6478 46.3639 46.0548C46.3639 45.4354 46.2362 44.9755 45.981 44.6752C45.7257 44.3749 45.4029 44.2248 45.0125 44.2248C44.6334 44.2248 44.3209 44.3721 44.075 44.6668C43.8292 44.9615 43.7062 45.411 43.7062 46.0153ZM40.4893 33.7537C38.3664 33.7537 36.6454 32.0328 36.6454 29.9099C36.6454 27.787 38.3664 26.066 40.4893 26.066C42.6121 26.066 44.3331 27.787 44.3331 29.9099C44.3331 32.0328 42.6121 33.7537 40.4893 33.7537ZM40.4893 31.8318C41.5507 31.8318 42.4112 30.9713 42.4112 29.9099C42.4112 28.8484 41.5507 27.9879 40.4893 27.9879C39.4278 27.9879 38.5673 28.8484 38.5673 29.9099C38.5673 30.9713 39.4278 31.8318 40.4893 31.8318ZM33.3605 32.7927C32.9946 31.8885 32.8016 30.9131 32.8016 29.9099C32.8016 25.6641 36.2435 22.2222 40.4893 22.2222C44.735 22.2222 48.1769 25.6641 48.1769 29.9099C48.1769 30.9131 47.9839 31.8885 47.618 32.7927H48.5361C49.9016 32.7927 51.0798 33.7508 51.3584 35.0876L55.3624 54.3069C55.6871 55.8656 54.6868 57.3924 53.1281 57.7171C52.9347 57.7574 52.7376 57.7777 52.5401 57.7777H28.4384C26.8463 57.7777 25.5555 56.487 25.5555 54.8948C25.5555 54.6973 25.5758 54.5003 25.6161 54.3069L29.6201 35.0876C29.8987 33.7508 31.0769 32.7927 32.4424 32.7927H33.3605ZM35.7564 33.2039C36.2008 33.841 35.7449 34.7147 34.9682 34.7147H32.4424C31.9872 34.7147 31.5945 35.034 31.5017 35.4796L27.4977 54.6989C27.4842 54.7633 27.4775 54.829 27.4775 54.8948C27.4775 55.4256 27.9077 55.8558 28.4384 55.8558H52.5401C52.6059 55.8558 52.6716 55.849 52.7361 55.8356C53.2556 55.7274 53.5891 55.2184 53.4808 54.6989L49.4768 35.4796C49.384 35.034 48.9913 34.7147 48.5361 34.7147H46.0103C45.2336 34.7147 44.7778 33.841 45.2221 33.2039C45.8911 32.2448 46.255 31.1058 46.255 29.9099C46.255 26.7255 43.6736 24.1441 40.4893 24.1441C37.3049 24.1441 34.7235 26.7255 34.7235 29.9099C34.7235 31.1058 35.0874 32.2448 35.7564 33.2039Z" fill="#3755BD"/>
</svg>
