<svg width="186" height="172" viewBox="0 0 186 172" fill="none" xmlns="http://www.w3.org/2000/svg">
<path d="M183.346 168.369H151.124V108.918C151.124 104.153 147.267 100.295 142.501 100.295H137.056C135.24 91.6726 123.895 83.7307 107.103 79.6462C106.649 79.4193 106.195 79.6462 105.741 79.8732C105.288 80.1001 105.061 80.5539 105.061 81.0077C104.153 88.4959 94.1689 96.2109 92.5805 96.4378C90.7652 96.2109 80.7811 88.4959 79.8734 81.0077C79.8734 80.5539 79.6465 80.1001 79.1927 79.8732C78.7388 79.6462 78.285 79.4193 77.8312 79.6462C61.0396 83.7307 49.694 91.6726 47.8787 100.295H42.6597C37.8945 100.295 34.037 104.153 34.037 108.918V168.369H1.81531C0.907653 168.369 0 169.05 0 170.185C0 171.319 0.68074 172 1.81531 172H35.8523H149.309H183.346C184.253 172 185.161 171.319 185.161 170.185C185.161 169.05 184.253 168.369 183.346 168.369ZM147.494 168.369H37.6676V108.918C37.6676 106.195 39.9367 103.926 42.6597 103.926H47.6517H49.4671H51.2824H134.106H135.694H137.509H142.501C145.224 103.926 147.494 106.195 147.494 108.918V168.369Z" fill="#3755BD"/>
<path d="M92.5807 137.282C95.7137 137.282 98.2535 134.743 98.2535 131.61C98.2535 128.477 95.7137 125.937 92.5807 125.937C89.4477 125.937 86.9079 128.477 86.9079 131.61C86.9079 134.743 89.4477 137.282 92.5807 137.282Z" fill="#3755BD"/>
<path d="M76.6966 75.3352C80.781 77.6043 85.3193 78.7389 90.3114 78.7389H94.8496C99.8417 78.7389 104.38 77.3774 108.464 75.3352C118.222 80.5542 137.055 77.6043 136.375 60.132C121.852 65.1241 127.979 38.1214 128.206 31.0871C128.887 15.657 108.918 0 92.8074 0H92.5805H92.3536C76.2428 0 56.2744 15.657 56.9551 31.314C57.1821 38.3483 63.5356 65.351 48.7863 60.3589C48.1055 77.8312 66.9393 80.5542 76.6966 75.3352ZM64.8971 34.037C64.8971 32.4486 65.3509 31.0871 66.0317 29.9525C69.2085 33.1293 75.3351 35.1715 84.1847 34.9446C81.4618 30.8602 84.4116 29.2718 89.8575 29.0449C91.4459 29.0449 93.4882 29.0449 95.3035 29.2718C103.699 30.1794 114.364 32.9024 120.264 35.3984V49.9209C120.264 60.132 114.137 69.2085 105.288 73.066C102.111 74.4275 98.4802 75.3352 94.8496 75.3352H90.3114C86.4539 75.3352 83.0502 74.4275 79.8734 73.066C71.0238 68.9816 64.8971 60.132 64.8971 49.9209V34.037V34.037Z" fill="#3755BD"/>
<path d="M81.235 47.6516C83.1148 47.6516 84.6387 46.1277 84.6387 44.2479C84.6387 42.3681 83.1148 40.8442 81.235 40.8442C79.3552 40.8442 77.8313 42.3681 77.8313 44.2479C77.8313 46.1277 79.3552 47.6516 81.235 47.6516Z" fill="#3755BD"/>
<path d="M103.926 47.6516C105.806 47.6516 107.33 46.1277 107.33 44.2479C107.33 42.3681 105.806 40.8442 103.926 40.8442C102.047 40.8442 100.523 42.3681 100.523 44.2479C100.523 46.1277 102.047 47.6516 103.926 47.6516Z" fill="#3755BD"/>
<path d="M85.773 62.6283C87.5883 64.2167 90.5382 65.3513 93.488 65.3513C95.5303 65.3513 97.3456 64.8975 99.1609 63.9898C99.3878 63.7629 99.6147 63.536 99.8416 63.3091C100.069 62.8553 100.295 62.1745 99.8416 61.7207C99.6147 61.2669 99.1609 61.0399 98.707 60.813C98.2532 60.813 98.0263 60.813 97.5725 61.04C94.6226 62.6283 90.3113 62.1745 88.0421 60.1323C87.8152 59.9054 87.3614 59.6785 86.9076 59.6785C86.4537 59.6785 85.9999 59.9054 85.5461 60.1323C85.0923 60.813 85.0923 61.9476 85.773 62.6283Z" fill="#3755BD"/>
</svg>
