<svg width="168" height="64" viewBox="0 0 168 64" fill="none" xmlns="http://www.w3.org/2000/svg">
<path d="M32.3537 63.9972C50.2222 63.9972 64.7074 49.671 64.7074 31.9986C64.7074 14.3263 50.2222 0 32.3537 0C14.4853 0 0 14.3263 0 31.9986C0 49.671 14.4853 63.9972 32.3537 63.9972Z" fill="#A99587"/>
<path d="M49.9492 25.7416H25.5966L25.3366 32.9995H26.3738C27.3662 28.3461 28.2748 27.619 33.2398 27.536H34.8137C35.2443 27.8319 35.4567 28.2881 35.5714 29.0208V38.17C35.0262 39.3036 32.703 40.1828 29.9494 40.1828C22.924 40.1828 18.5936 35.3138 18.5936 27.3729C18.5936 23.3582 19.8041 19.4707 21.7023 17.3804C22.6496 16.3429 23.8095 15.5169 25.1047 14.9572C26.3999 14.3975 27.8008 14.117 29.2141 14.1344C31.5163 14.088 33.7463 14.9299 35.4316 16.4818C36.7287 17.7205 37.4193 18.832 38.5068 21.4366H39.4992L39.1386 12.4256H38.1881C38.0638 12.838 37.8068 13.1989 37.456 13.4534C37.1053 13.708 36.6801 13.8422 36.2451 13.8357C35.5944 13.7809 34.9545 13.6367 34.3441 13.4072C32.4528 12.7716 30.4707 12.4402 28.4733 12.4256C19.8376 12.4256 13.6565 18.702 13.6565 27.4144C13.6565 31.6005 14.8223 34.8023 17.2377 37.3211C20.0892 40.2686 24.2771 41.8916 29.024 41.8916C31.2379 41.8386 33.4346 41.4907 35.5546 40.8575V48.8758C35.5098 52.5476 35.1213 52.9734 31.4953 53.1863V53.9992H44.1036V53.1974C40.5615 53.0287 40.0024 52.473 39.9577 49.3569V29.0153C40.0611 28.3047 40.2624 27.8429 40.637 27.536H42.2892C47.299 27.619 48.2048 28.3461 49.1553 32.9995H50.1896L49.9492 25.7416Z" fill="white"/>
<path d="M87.5594 20.3049V26.9743C86.2259 27.7785 84.0424 28.2181 82.3815 28.2181C77.7434 28.2181 75.0569 24.9499 75.0569 21.1091C75.0569 17.0945 78.0145 14 82.1885 14C84.6994 14 86.2259 14.6691 87.2883 15.7585L85.9743 17.1524C84.8533 16.0802 83.5588 15.7199 82.1885 15.7199C79.0574 15.7199 77.0279 18.1453 77.0279 21.1091C77.0279 24.1672 79.3285 26.4982 82.3424 26.4982C83.6434 26.4982 84.8728 26.2495 85.7033 25.7906V22.0248H82.6677V20.3092L87.5594 20.3049Z" fill="white"/>
<path d="M95.2287 14.3431H96.9092L102.764 27.8729H100.595L99.238 24.536H92.733L91.38 27.8793H89.2117L95.2287 14.3431ZM98.5528 22.9212L96.0007 16.7021H95.9638L93.3835 22.9233L98.5528 22.9212Z" fill="white"/>
<path d="M104.542 14.3431H106.393V26.153H112.681V27.8686H104.542V14.3431Z" fill="white"/>
<path d="M114.568 14.3431H116.424V27.8729H114.568V14.3431Z" fill="white"/>
<path d="M119.939 14.3431H122.374L129.911 25.4646H129.948V14.3431H131.804V27.8729H129.447L121.834 16.7514H121.788V27.8729H119.932L119.939 14.3431Z" fill="white"/>
<path d="M139.608 14.3431H141.29L147.145 27.8729H144.989L143.608 24.536H137.103L135.75 27.8793H133.582L139.608 14.3431ZM142.932 22.9212L140.382 16.7021H140.343L137.754 22.9212H142.932Z" fill="white"/>
<path d="M80.7683 36.0414H76.3623V34.3257H87.0282V36.0414H82.6222V47.8512H80.7683V36.0414Z" fill="white"/>
<path d="M88.147 41.0853C88.147 37.0729 91.1046 33.9762 95.2764 33.9762C99.4482 33.9762 102.408 37.0729 102.408 41.0853C102.408 45.0976 99.4547 48.1943 95.2764 48.1943C91.098 48.1943 88.147 45.0998 88.147 41.0853ZM100.437 41.0853C100.437 38.1237 98.4074 35.6961 95.2764 35.6961C92.1453 35.6961 90.118 38.1237 90.118 41.0853C90.118 44.0468 92.1475 46.4744 95.2764 46.4744C98.4053 46.4744 100.437 44.0511 100.437 41.0853Z" fill="white"/>
<path d="M104.936 34.3214H107.694L112.042 44.5636H112.118L116.428 34.3214H119.191V47.8512H117.335V36.7297H117.296L112.681 47.8512H111.443L106.827 36.7297H106.788V47.8512H104.932L104.936 34.3214Z" fill="white"/>
<path d="M126.867 34.3214H128.547L134.401 47.8512H132.233L130.861 44.5057H124.356L123.005 47.8512H120.836L126.867 34.3214ZM130.191 42.8995L127.638 36.6804H127.602L125.01 42.8995H130.191Z" fill="white"/>
<path d="M136.585 45.0226C136.908 45.4837 137.342 45.8579 137.847 46.1114C138.353 46.3649 138.915 46.4897 139.482 46.4744C140.7 46.4744 142.207 45.711 142.207 44.2205C142.207 41.1046 135.464 43.0346 135.464 37.7613C135.464 36.1743 136.817 33.9762 140.1 33.9762C141.589 33.9762 143.018 34.2828 144.042 35.5245L142.524 36.882C142.06 36.1743 141.154 35.6961 140.089 35.6961C138.042 35.6961 137.424 36.9206 137.424 37.7613C137.424 41.1925 144.168 39.1359 144.168 44.0104C144.168 46.6267 142.043 48.1943 139.415 48.1943C137.656 48.1943 135.973 47.6024 135.048 46.3222L136.585 45.0226Z" fill="white"/>
<path d="M139.644 50H138.088L139.644 46.8669H141.52L139.644 50Z" fill="white"/>
</svg>
