<svg width="143" height="143" viewBox="0 0 143 143" fill="none" xmlns="http://www.w3.org/2000/svg">
<path d="M9.48219 109.45L96.719 139.338C101.948 141.13 107.659 138.333 109.45 133.105L139.338 45.868C141.13 40.6394 138.333 34.9283 133.105 33.137L45.8678 3.24872C40.6392 1.45738 34.9281 4.25375 33.1368 9.48227L3.24863 96.7192C1.45729 101.948 4.25367 107.659 9.48219 109.45ZM36.9297 10.7818C38.0044 7.64502 41.4315 5.96695 44.5683 7.04163L131.805 36.9299C134.942 38.0046 136.62 41.4317 135.545 44.5685L105.657 131.805C104.582 134.942 101.155 136.62 98.0185 135.545L10.7817 105.657C7.64494 104.583 5.96687 101.155 7.04154 98.0186L36.9297 10.7818Z" fill="#C5C9D2"/>
<path d="M66.412 48.4303L89.1695 56.2272C92.3062 57.3019 95.7334 55.6238 96.808 52.4871L101.356 39.2119C102.431 36.0752 100.753 32.648 97.6161 31.5733L74.8587 23.7764C71.7219 22.7017 68.2948 24.3798 67.2201 27.5165L62.6719 40.7917C61.5972 43.9284 63.2753 47.3556 66.412 48.4303ZM71.013 28.816C71.371 27.7711 72.5123 27.2106 73.5592 27.5693L96.3166 35.3662C97.3635 35.7249 97.9213 36.8675 97.5633 37.9124L93.0151 51.1876C92.6571 52.2325 91.5158 52.793 90.4689 52.4343L67.7115 44.6374C66.6647 44.2787 66.1068 43.1361 66.4648 42.0912L71.013 28.816Z" fill="#C5C9D2"/>
<path d="M23.201 103.506C23.4928 103.638 23.7892 103.757 24.0888 103.859C26.4461 104.667 29.0384 104.578 31.3314 103.588C33.9191 102.468 35.9277 100.297 36.8991 97.4622C40.3005 87.5343 47.9274 79.0349 58.3706 73.5349C61.3067 71.9852 63.3776 69.6581 64.3574 66.7982C66.8654 59.4779 61.2496 50.9 51.8375 47.6753C42.4254 44.4507 32.7292 47.7825 30.2212 55.1028L17.9879 90.8093C16.2686 95.8273 18.5583 101.403 23.201 103.506ZM34.0141 56.4023C35.8055 51.1738 43.2196 48.9609 50.538 51.4682C57.8564 53.9756 62.3558 60.2702 60.5645 65.4987C59.9225 67.3724 58.5174 68.9253 56.5034 69.9856C45.1496 75.9663 36.8409 85.2619 33.0477 96.3334C32.5 97.9321 31.2948 99.2356 29.743 99.9055C28.1657 100.588 26.4251 100.566 24.855 99.854C22.0761 98.5947 20.7243 95.1924 21.7808 92.1087L34.0141 56.4023Z" fill="#C5C9D2"/>
<path d="M79.529 71.9959C78.5491 74.8557 78.7578 77.9638 80.1274 80.9865C85.003 91.7372 85.816 103.126 82.3555 113.226C81.4426 115.891 81.6983 118.837 83.0559 121.307C84.2593 123.497 86.2526 125.157 88.6099 125.965C88.9095 126.067 89.2175 126.158 89.5288 126.233C94.4847 127.416 99.7125 124.416 101.432 119.398L113.665 83.6913C116.173 76.371 110.557 67.7931 101.145 64.5684C91.7331 61.3437 82.037 64.6756 79.529 71.9959ZM99.8457 68.3613C107.164 70.8687 111.664 77.1633 109.872 82.3918L97.6389 118.098C96.5824 121.182 93.4282 123.04 90.4627 122.332C88.7823 121.93 87.3938 120.88 86.5702 119.375C85.7533 117.893 85.6006 116.125 86.2069 114.355C89.9416 103.454 89.079 91.0167 83.7775 79.3319C82.8375 77.2574 82.6799 75.1691 83.3219 73.2954C85.1132 68.0668 92.5273 65.8539 99.8457 68.3613Z" fill="#C5C9D2"/>
<path d="M62.7775 28.1131L55.1917 25.5142L53.8922 29.3071L61.478 31.906L62.7775 28.1131Z" fill="#C5C9D2"/>
<path d="M60.1786 35.6996L52.5928 33.1006L51.2933 36.8935L58.8791 39.4925L60.1786 35.6996Z" fill="#C5C9D2"/>
<path d="M59.5453 111.769L55.7524 110.469L54.453 114.262L58.2459 115.562L59.5453 111.769Z" fill="#C5C9D2"/>
<path d="M67.1312 114.367L63.3383 113.068L62.0388 116.861L65.8317 118.16L67.1312 114.367Z" fill="#C5C9D2"/>
<path d="M51.9595 109.17L48.1666 107.87L46.8671 111.663L50.66 112.963L51.9595 109.17Z" fill="#C5C9D2"/>
</svg>
