<svg width="128" height="135" viewBox="0 0 128 135" fill="none" xmlns="http://www.w3.org/2000/svg">
<path d="M107.603 72.8418V72.7077C108.593 71.6189 109.353 70.3418 109.838 68.9527C110.715 66.3945 110.805 63.632 110.095 61.0223C109.386 58.4126 107.911 56.0755 105.86 54.3129C105.86 50.2673 102.775 46.7806 97.2098 44.4784C95.3323 29.2127 101.479 12.9859 107.067 2.01159L103.088 0C97.0533 11.9131 90.3704 29.6597 92.9408 46.423C93.7183 51.7603 95.044 57.0032 96.8969 62.0686C91.5774 66.8741 79.4855 74.5181 61.7388 84.2855C57.4474 81.8939 53.1337 79.413 48.8423 76.865C43.0568 73.571 37.5346 69.8347 32.3249 65.6895C31.5933 65.1154 30.892 64.5037 30.224 63.8567C31.478 60.7278 32.516 57.5167 33.3307 54.2458C33.7778 52.5024 34.1801 50.692 34.493 48.8369C37.6892 31.2467 30.738 12.6283 24.368 0.0894038L20.3895 2.10099C26.3125 13.7458 32.7273 30.822 30.2687 46.8029C24.815 49.038 21.7306 52.4354 21.5741 56.3691C20.8161 57.0047 20.1669 57.7597 19.652 58.6042C18.3818 60.4333 17.5204 62.5144 17.1263 64.7061C16.8138 66.3477 16.8369 68.0357 17.1941 69.6682C17.5514 71.3007 18.2354 72.8441 19.2049 74.2052L19.3167 74.3393C17.3186 77.3045 15.5407 80.4121 13.9972 83.6373C10.8331 91.2346 9.15624 99.3684 9.05759 107.598C9.05759 107.598 9.05759 107.709 9.05759 107.776C8.9879 108.093 8.9879 108.421 9.05759 108.737C9.00324 116.699 9.43617 124.655 10.3539 132.564V132.809H14.8241C14.8241 132.564 14.8241 132.34 14.8241 132.072C14.031 125.088 13.5984 118.068 13.5278 111.04C22.2894 113.141 49.6693 120.539 61.0012 132.899C61.5673 133.521 62.2576 134.018 63.0276 134.357C63.7976 134.695 64.6302 134.869 65.4714 134.866C66.3104 134.868 67.1406 134.696 67.91 134.361C68.6793 134.027 69.371 133.536 69.9416 132.921C80.6254 121.254 105.1 113.945 114.42 111.509C114.42 118.795 113.727 125.925 113.146 132.005V132.519L117.616 133.1V132.519C118.98 118.393 120.857 98.9924 113.884 83.5479C112.071 79.8215 109.972 76.2419 107.603 72.8418ZM102.887 76.1051L103.96 75.4569L105.48 77.8261C98.2292 85.0979 88.5715 89.4697 78.3232 90.1191L81.3183 88.4204C85.7885 85.9395 90.1022 83.4585 94.483 80.9329L95.9582 80.1059C98.238 78.7872 100.607 77.4461 102.887 76.1051ZM101.367 54.894C101.167 55.9482 100.773 56.9562 100.205 57.8667C99.7131 56.3244 99.2437 54.7152 98.7967 52.9494C98.5285 51.9213 98.305 50.9155 98.1038 49.8874C99.959 51.072 101.702 52.7706 101.367 54.894ZM101.054 64.1026L101.546 63.6109C101.836 63.2756 102.127 62.9403 102.328 62.6721C103.125 61.6893 103.828 60.6343 104.429 59.5206C105.276 60.6248 105.829 61.9257 106.036 63.3016C106.243 64.6776 106.098 66.0836 105.614 67.3882C104.742 69.7574 103.379 70.6738 100.63 72.2607L92.2702 77.0661L70.9027 89.2027L66.4325 86.6994C84.5592 76.5521 96.2487 68.9527 101.054 64.1026ZM29.1288 52.346C29.1288 52.5695 29.1288 52.8153 28.9723 53.0388C28.3465 55.4751 27.6983 57.509 27.0054 59.5877C26.824 59.229 26.6744 58.855 26.5584 58.4701C26.4259 58.0667 26.2537 57.6773 26.0443 57.3079V57.1961C26.0372 56.1766 26.3244 55.1767 26.8715 54.3163C27.4186 53.456 28.2024 52.7718 29.1288 52.346ZM21.5071 65.3989C21.7535 64.0433 22.254 62.7466 22.9822 61.5769C24.5793 64.5098 26.7902 67.0637 29.464 69.0645C34.8566 73.3412 40.565 77.2041 46.5402 80.6199C58.4756 87.7276 70.5898 94.2764 81.7429 100.11L78.9938 104.245L27.9442 75.2334C26.0053 74.3158 24.2719 73.0158 22.8481 71.4113C22.232 70.5379 21.7961 69.5504 21.5658 68.5066C21.3356 67.4627 21.3156 66.3835 21.5071 65.3319V65.3989ZM90.7951 104.804L88.4706 109.564L82.8828 106.391L85.7438 102.099L90.7951 104.804ZM47.3895 102.569L44.8191 98.2549L51.368 94.8128L52.3514 94.2987L57.2016 97.0479L47.3895 102.569ZM40.8407 100.333L43.5004 104.804L38.8738 107.441L36.4599 102.591L40.8407 100.333ZM25.7091 79.1671L44.685 89.918C35.9917 88.8517 27.8212 85.1909 21.2389 79.413C21.6859 78.6978 22.1106 77.9825 22.5799 77.1779C23.6528 77.9602 24.6809 78.5637 25.7091 79.1671ZM66.5219 129.904C66.3781 130.063 66.202 130.189 66.0053 130.273C65.8087 130.358 65.5961 130.4 65.382 130.396C65.1657 130.4 64.9512 130.356 64.7539 130.267C64.5567 130.178 64.3819 130.047 64.2421 129.881C51.4797 115.979 21.5741 108.223 13.5948 106.458C13.7772 99.217 15.2926 92.072 18.065 85.3807C18.3556 84.7325 18.7132 84.062 19.0485 83.4138C25.8444 89.185 34.1365 92.9126 42.964 94.1646L40.7289 95.3939C35.8788 97.8972 32.7273 99.4618 32.6826 99.5065C32.1561 99.7745 31.7572 100.24 31.5729 100.801C31.3886 101.362 31.434 101.974 31.6991 102.502L36.1693 111.442C36.3041 111.713 36.4924 111.953 36.7229 112.149C36.9534 112.345 37.2213 112.492 37.5104 112.582C37.7251 112.616 37.9438 112.616 38.1586 112.582C38.5425 112.581 38.9197 112.481 39.2537 112.291L61.8506 99.4618L88.2918 114.616C88.6276 114.801 89.0037 114.9 89.387 114.906C89.6076 114.904 89.8264 114.866 90.0351 114.795C90.3242 114.705 90.5921 114.558 90.8226 114.362C91.0531 114.166 91.2415 113.926 91.3762 113.655L95.8464 104.714C96.1045 104.189 96.1461 103.583 95.9622 103.027C95.7783 102.471 95.3836 102.01 94.863 101.742C90.3928 99.5065 85.5426 96.9361 80.5807 94.3211C90.8084 93.2545 100.4 88.8477 107.871 81.7822C108.519 82.9444 109.123 84.0173 109.682 85.336C112.498 92.1699 114.014 99.4696 114.152 106.86C104.094 109.475 78.3009 117.03 66.5219 129.904Z" fill="#C5C9D2"/>
<path d="M125.886 54.6926C125.607 54.5979 125.313 54.5592 125.019 54.5788C124.725 54.5984 124.438 54.6758 124.174 54.8067C123.91 54.9375 123.675 55.1192 123.482 55.3413C123.288 55.5633 123.141 55.8214 123.048 56.1007L122.489 57.7994C119.838 54.3237 118.434 50.057 118.503 45.6863C118.572 41.3157 120.11 37.0954 122.869 33.705C123.119 33.5012 123.323 33.2456 123.465 32.9557C123.607 32.6658 123.685 32.3485 123.693 32.0257C123.7 31.7029 123.638 31.3822 123.51 31.0857C123.382 30.7892 123.192 30.524 122.952 30.3082C122.711 30.0925 122.427 29.9314 122.119 29.836C121.81 29.7406 121.485 29.7131 121.165 29.7556C120.844 29.798 120.537 29.9093 120.264 30.0817C119.991 30.2542 119.759 30.4838 119.583 30.7547C116.313 34.8037 114.432 39.7974 114.219 44.9977C114.006 50.1979 115.471 55.3289 118.399 59.6321L117.013 59.1628C116.734 59.0688 116.439 59.0307 116.146 59.0507C115.852 59.0706 115.566 59.1482 115.302 59.2789C115.038 59.4097 114.803 59.5911 114.61 59.8127C114.416 60.0344 114.268 60.292 114.174 60.5709C114.08 60.8497 114.042 61.1443 114.062 61.4379C114.082 61.7314 114.16 62.0182 114.29 62.2818C114.421 62.5454 114.603 62.7806 114.824 62.9741C115.046 63.1676 115.304 63.3155 115.582 63.4094L122.288 65.6445C122.52 65.7127 122.761 65.7502 123.003 65.7563C123.49 65.7817 123.973 65.6469 124.376 65.3725C124.78 65.0981 125.082 64.699 125.238 64.2364L127.473 57.5311C127.565 57.2407 127.596 56.9346 127.564 56.6316C127.533 56.3287 127.441 56.0353 127.292 55.7695C127.143 55.5037 126.942 55.2711 126.7 55.0859C126.459 54.9007 126.182 54.7668 125.886 54.6926Z" fill="#C5C9D2"/>
<path d="M13.3043 62.8061C13.211 62.5268 13.0634 62.2687 12.8701 62.0467C12.6767 61.8246 12.4414 61.6429 12.1777 61.5121C11.9139 61.3812 11.6269 61.3038 11.3331 61.2842C11.0393 61.2646 10.7445 61.3033 10.4657 61.398L9.07996 61.8673C11.9981 57.557 13.452 52.4221 13.2266 47.2217C13.0012 42.0214 11.1085 37.0315 7.82831 32.9899C7.63905 32.7549 7.40417 32.5607 7.13783 32.4189C6.87149 32.2771 6.57921 32.1908 6.27859 32.165C5.97798 32.1392 5.67525 32.1745 5.38867 32.2689C5.10208 32.3633 4.83756 32.5147 4.61106 32.714C4.38455 32.9133 4.20075 33.1564 4.07072 33.4287C3.9407 33.701 3.86715 33.9967 3.85449 34.2982C3.84184 34.5996 3.89036 34.9005 3.99711 35.1827C4.10387 35.4649 4.26666 35.7226 4.47567 35.9402C7.27077 39.3107 8.83742 43.5311 8.91864 47.9091C8.99987 52.2871 7.59084 56.5627 4.92268 60.0345L4.36391 58.3359C4.17422 57.7727 3.76859 57.308 3.23625 57.0439C2.70392 56.7799 2.08848 56.7381 1.52534 56.9278C0.962191 57.1175 0.497466 57.5231 0.233394 58.0554C-0.0306781 58.5878 -0.0724652 59.2032 0.117226 59.7663L2.35232 66.4716C2.50784 66.9342 2.81051 67.3333 3.2141 67.6077C3.61769 67.8821 4.10002 68.0169 4.58742 67.9915C4.82485 68.0221 5.06522 68.0221 5.30265 67.9915L12.0079 65.7564C12.2905 65.6527 12.5491 65.4931 12.7684 65.287C12.9877 65.081 13.1632 64.8327 13.2842 64.5572C13.4053 64.2817 13.4695 63.9846 13.4729 63.6837C13.4764 63.3828 13.419 63.0843 13.3043 62.8061Z" fill="#C5C9D2"/>
<path d="M64.8233 54.5809H60.3531V61.2862H64.8233V54.5809Z" fill="#C5C9D2"/>
</svg>
