<svg width="60" height="36" viewBox="0 0 60 36" fill="none" xmlns="http://www.w3.org/2000/svg">
<path d="M20.8554 28.607C20.8555 28.4853 20.8827 28.3651 20.9349 28.2551C20.9871 28.1451 21.063 28.0481 21.1572 27.971C21.2514 27.8939 21.3616 27.8386 21.4797 27.8092C21.5979 27.7799 21.7211 27.777 21.8404 27.801C21.96 27.825 22.0727 27.8755 22.1703 27.9486C22.2679 28.0217 22.348 28.1156 22.4047 28.2236C22.4614 28.3315 22.4933 28.4508 22.4981 28.5727C22.5029 28.6945 22.4805 28.8159 22.4324 28.928C22.3686 29.0778 22.2618 29.2054 22.1254 29.2944C21.989 29.3834 21.8293 29.4299 21.6664 29.428C21.1664 29.488 20.8554 29.118 20.8554 28.607ZM22.9274 27.284H22.4274V27.664C22.3249 27.5274 22.192 27.4166 22.0393 27.3402C21.8866 27.2639 21.7182 27.2241 21.5474 27.224C21.1996 27.2531 20.8754 27.4121 20.6394 27.6692C20.4033 27.9264 20.2727 28.2629 20.2734 28.612C20.2738 28.9606 20.4047 29.2964 20.6403 29.5532C20.8759 29.8101 21.1992 29.9695 21.5464 30C21.704 30.0107 21.8618 29.9814 22.0051 29.915C22.1484 29.8486 22.2727 29.7471 22.3664 29.62V29.93H22.9274V27.284ZM42.3364 28.607C42.3369 28.445 42.3852 28.2868 42.4753 28.1522C42.5654 28.0176 42.6933 27.9126 42.8429 27.8504C42.9924 27.7883 43.157 27.7717 43.316 27.8027C43.475 27.8338 43.6212 27.9111 43.7364 28.025C43.8516 28.1398 43.93 28.2863 43.962 28.4457C43.9939 28.6052 43.9777 28.7705 43.9157 28.9208C43.8536 29.0712 43.7483 29.1997 43.6131 29.2901C43.478 29.3806 43.319 29.4289 43.1564 29.429C42.5864 29.489 42.3364 29.118 42.3364 28.607ZM44.4174 28.607V26.21H43.8474V27.663C43.7566 27.5287 43.6345 27.4186 43.4916 27.3419C43.3488 27.2653 43.1895 27.2245 43.0274 27.223C42.8497 27.2266 42.6744 27.2653 42.5117 27.3369C42.349 27.4084 42.202 27.5114 42.0791 27.6399C41.9563 27.7684 41.8601 27.9199 41.7959 28.0857C41.7318 28.2515 41.701 28.4283 41.7054 28.606C41.6944 28.7866 41.7208 28.9676 41.7829 29.1375C41.8451 29.3074 41.9416 29.4627 42.0666 29.5936C42.1916 29.7244 42.3422 29.8281 42.5091 29.898C42.676 29.968 42.8555 30.0027 43.0364 30C43.1942 30.0109 43.3522 29.9818 43.4957 29.9154C43.6392 29.849 43.7636 29.7474 43.8574 29.62V29.93H44.4274L44.4174 28.607ZM30.0244 27.785C30.1987 27.7842 30.367 27.8484 30.4965 27.9651C30.626 28.0818 30.7072 28.2426 30.7244 28.416H29.3544C29.3714 28.2478 29.4485 28.0913 29.5716 27.9754C29.6947 27.8595 29.8555 27.7919 30.0244 27.785ZM30.0944 27.223C29.7466 27.2524 29.4225 27.4116 29.1867 27.6689C28.9508 27.9263 28.8204 28.2629 28.8214 28.612C28.8218 28.9606 28.9527 29.2964 29.1883 29.5532C29.4239 29.8101 29.7472 29.9695 30.0944 30C30.484 29.9975 30.8614 29.8637 31.1654 29.62L30.9154 29.178C30.697 29.3437 30.4295 29.4317 30.1554 29.428C30.0646 29.4365 29.973 29.4269 29.8858 29.3998C29.7987 29.3727 29.7179 29.3285 29.6479 29.2699C29.578 29.2113 29.5204 29.1395 29.4784 29.0585C29.4364 28.9774 29.4109 28.8889 29.4034 28.798H31.4054V28.607C31.4162 28.2528 31.2868 27.9088 31.0452 27.6496C30.8036 27.3904 30.4694 27.2371 30.1154 27.223H30.0944ZM37.0314 28.607C37.0319 28.445 37.0802 28.2868 37.1703 28.1522C37.2604 28.0176 37.3883 27.9126 37.5379 27.8504C37.6874 27.7883 37.852 27.7717 38.011 27.8027C38.17 27.8338 38.3162 27.9111 38.4314 28.025C38.5461 28.14 38.6241 28.2864 38.6558 28.4457C38.6874 28.605 38.6712 28.7701 38.6092 28.9202C38.5472 29.0703 38.4421 29.1987 38.3073 29.2893C38.1724 29.3798 38.0138 29.4284 37.8514 29.429C37.2914 29.489 37.0314 29.118 37.0314 28.607ZM39.1734 27.284H38.6034V27.664C38.5124 27.5295 38.39 27.4191 38.2468 27.3425C38.1036 27.2658 37.9438 27.2251 37.7814 27.224C37.4337 27.2534 37.1098 27.4124 36.874 27.6695C36.6382 27.9267 36.5077 28.2631 36.5084 28.612C36.5086 28.9606 36.6394 29.2966 36.8751 29.5535C37.1107 29.8104 37.4341 29.9697 37.7814 30C37.9392 30.0108 38.0971 29.9817 38.2406 29.9153C38.3841 29.8488 38.5086 29.7473 38.6024 29.62V29.93H39.1724L39.1734 27.284ZM33.8184 28.607C33.8038 28.885 33.8771 29.1606 34.0278 29.3946C34.1786 29.6287 34.3992 29.8093 34.6584 29.911C34.8304 29.978 35.0144 30.009 35.1984 30C35.5449 30.0187 35.8855 29.9042 36.1504 29.68L35.9004 29.238C35.6954 29.388 35.4524 29.474 35.1994 29.488C35.0913 29.4923 34.9835 29.4743 34.8827 29.4352C34.7819 29.3961 34.6902 29.3367 34.6133 29.2606C34.5364 29.1845 34.4759 29.0935 34.4357 28.9931C34.3955 28.8927 34.3763 28.7851 34.3794 28.677C34.3705 28.567 34.3856 28.4563 34.4237 28.3527C34.4617 28.2491 34.5218 28.155 34.5998 28.0768C34.6777 27.9987 34.7717 27.9384 34.8752 27.9001C34.9788 27.8618 35.0894 27.8464 35.1994 27.855C35.4562 27.8453 35.7069 27.9348 35.8994 28.105L36.1494 27.665C36.0429 27.5154 35.8993 27.396 35.7328 27.3185C35.5663 27.2411 35.3825 27.2081 35.1994 27.223C35.0125 27.2117 34.8253 27.2394 34.6497 27.3043C34.4741 27.3692 34.314 27.47 34.1794 27.6001C34.0448 27.7303 33.9388 27.887 33.868 28.0604C33.7973 28.2337 33.7634 28.4198 33.7684 28.607H33.8184ZM41.1844 27.223C41.0448 27.2126 40.9052 27.243 40.7826 27.3107C40.6601 27.3784 40.5599 27.4803 40.4944 27.604V27.284H39.9244V29.93H40.4944V28.486C40.4944 28.046 40.6844 27.785 41.0644 27.785C41.1918 27.7741 41.3198 27.7983 41.4344 27.855L41.6244 27.344C41.4683 27.2788 41.303 27.2384 41.1344 27.224H41.1844V27.223ZM25.8804 27.534C25.5588 27.3405 25.1845 27.253 24.8104 27.284C24.1194 27.284 23.7384 27.604 23.7384 28.105C23.7384 28.607 24.0484 28.797 24.6184 28.857L24.8694 28.927C25.1894 28.987 25.3094 29.047 25.3094 29.178C25.3094 29.308 25.1194 29.488 24.6794 29.488C24.3679 29.4927 24.0619 29.4057 23.7994 29.238L23.5484 29.679C23.8764 29.916 24.2764 30.029 24.6794 30C25.4394 30 25.8804 29.62 25.8804 29.118C25.8804 28.617 25.5604 28.416 24.8804 28.356L24.6294 28.296C24.3794 28.226 24.1894 28.226 24.1894 28.046C24.1894 27.865 24.3794 27.724 24.6894 27.724C24.9804 27.733 25.2644 27.819 25.5094 27.975L25.8804 27.534ZM33.2474 27.224C33.1079 27.2133 32.9683 27.2436 32.8457 27.3111C32.7232 27.3786 32.623 27.4804 32.5574 27.604V27.284H31.9864V29.93H32.5564V28.486C32.5564 28.046 32.7464 27.785 33.1264 27.785C33.2542 27.7739 33.3825 27.7981 33.4974 27.855L33.6874 27.283C33.4474 27.283 33.3274 27.223 33.1974 27.223H33.2474V27.224ZM28.3324 27.284H27.3924V26.462H26.8214V27.284H26.3214V27.854H26.8214V29.058C26.8214 29.689 27.0714 30.06 27.7714 30.06C28.0154 30.062 28.2544 29.996 28.4634 29.87L28.2734 29.358C28.1245 29.4536 27.949 29.4992 27.7724 29.488C27.4524 29.488 27.3924 29.298 27.3924 29.048V27.855H28.3324V27.284ZM19.7844 29.93V28.296C19.7939 28.1588 19.775 28.0211 19.7291 27.8915C19.6831 27.7619 19.611 27.6431 19.5173 27.5425C19.4235 27.4419 19.3101 27.3616 19.184 27.3067C19.0579 27.2517 18.9219 27.2232 18.7844 27.223C18.603 27.2205 18.4233 27.2588 18.2587 27.3352C18.0941 27.4115 17.9487 27.5239 17.8334 27.664C17.7313 27.5268 17.5984 27.4155 17.4453 27.3391C17.2923 27.2626 17.1235 27.2232 16.9524 27.224C16.8046 27.2126 16.6565 27.2421 16.5242 27.3091C16.392 27.3761 16.2807 27.4781 16.2024 27.604V27.284H15.6214V29.93H16.1914V28.486C16.18 28.3973 16.1879 28.3071 16.2146 28.2217C16.2412 28.1363 16.2859 28.0576 16.3457 27.9911C16.4055 27.9246 16.479 27.8717 16.5611 27.8361C16.6432 27.8006 16.732 27.7831 16.8214 27.785C17.1924 27.785 17.3824 28.045 17.3824 28.486V29.93H17.9524V28.486C17.941 28.3972 17.9489 28.3069 17.9756 28.2215C18.0023 28.136 18.0471 28.0573 18.1071 27.9907C18.167 27.9242 18.2405 27.8713 18.3228 27.8358C18.405 27.8003 18.4939 27.783 18.5834 27.785C18.9634 27.785 19.1534 28.045 19.1534 28.486V29.93H19.7844ZM26.2314 15.024C26.2283 13.5096 26.5679 12.0142 27.2248 10.6497C27.8816 9.28524 28.8388 8.08708 30.0244 7.145C28.7822 6.16921 27.3246 5.50477 25.7733 5.20715C24.2219 4.90953 22.6219 4.98737 21.1068 5.43418C19.5917 5.88098 18.2054 6.68378 17.0638 7.77553C15.9222 8.86729 15.0584 10.2163 14.5444 11.71C14.0284 13.2042 13.8763 14.7999 14.1006 16.3646C14.325 17.9294 14.9193 19.418 15.8344 20.707C16.749 21.9945 17.958 23.0448 19.3607 23.7705C20.7634 24.4962 22.3191 24.8762 23.8984 24.879C26.1172 24.8953 28.2762 24.1605 30.0244 22.794C28.8287 21.8858 27.8627 20.7099 27.204 19.3606C26.5452 18.0113 26.2121 16.5254 26.2314 15.024ZM46.0394 15.024C46.0482 16.887 45.5303 18.7146 44.5454 20.296C43.8105 21.4783 42.8332 22.4912 41.6782 23.2682C40.5231 24.0451 39.2164 24.5682 37.8443 24.8032C36.4722 25.0381 35.0659 24.9794 33.7181 24.631C32.3703 24.2826 31.1118 23.6524 30.0254 22.782C31.2133 21.8547 32.1716 20.6661 32.826 19.3086C33.4803 17.951 33.813 16.4609 33.7984 14.954C33.8102 13.4501 33.476 11.9637 32.8216 10.6096C32.1672 9.25555 31.2101 8.07012 30.0244 7.145C31.763 5.77503 33.907 5.02062 36.1204 5C38.7529 5.04724 41.2627 6.12128 43.1144 7.993C44.9675 9.86657 46.0168 12.3889 46.0394 15.024Z" fill="#A99587"/>
<path d="M30.0244 8.288C29.0976 9.15189 28.354 10.1935 27.8381 11.3507C27.3222 12.5079 27.0445 13.7572 27.0214 15.024C27.0536 16.2922 27.3353 17.5416 27.8506 18.7008C28.3659 19.8601 29.1046 20.9064 30.0244 21.78C30.946 20.9078 31.6859 19.8617 32.2013 18.7022C32.7167 17.5427 32.9975 16.2926 33.0274 15.024C33.0072 13.7567 32.7308 12.5066 32.2147 11.3489C31.6986 10.1913 30.9535 9.15009 30.0244 8.288Z" fill="#A99587"/>
</svg>
