<svg width="91" height="36" viewBox="0 0 91 36" fill="none" xmlns="http://www.w3.org/2000/svg">
<path d="M33.6079 10.9083H28.6341C28.4694 10.9082 28.3101 10.9669 28.1849 11.0739C28.0597 11.1808 27.9768 11.3289 27.9512 11.4916L25.9395 24.2458C25.9303 24.305 25.934 24.3654 25.9504 24.4231C25.9667 24.4807 25.9954 24.5341 26.0344 24.5796C26.0734 24.625 26.1217 24.6615 26.1762 24.6865C26.2306 24.7115 26.2898 24.7244 26.3497 24.7243H28.7243C28.889 24.7244 29.0484 24.6656 29.1736 24.5585C29.2988 24.4514 29.3817 24.3031 29.4072 24.1403L29.9497 20.7003C29.9752 20.5377 30.0579 20.3895 30.183 20.2824C30.3081 20.1753 30.4673 20.1164 30.6319 20.1163H32.2065C35.4828 20.1163 37.3737 18.5309 37.8675 15.3891C38.0901 14.0145 37.877 12.9345 37.2334 12.1781C36.5265 11.3476 35.2726 10.9083 33.6079 10.9083ZM34.1817 15.5665C33.9097 17.3512 32.5461 17.3512 31.2275 17.3512H30.477L31.0035 14.0181C31.019 13.9206 31.0687 13.8318 31.1437 13.7677C31.2188 13.7036 31.3143 13.6683 31.413 13.6683H31.757C32.6552 13.6683 33.5024 13.6683 33.9403 14.1803C34.2014 14.4858 34.2814 14.9396 34.1817 15.5665ZM48.4755 15.5091H46.0937C45.995 15.5091 45.8995 15.5443 45.8245 15.6084C45.7494 15.6725 45.6997 15.7614 45.6843 15.8589L45.5788 16.5251L45.4123 16.2836C44.8966 15.5352 43.7468 15.2851 42.5992 15.2851C39.9672 15.2851 37.7192 17.2785 37.2814 20.0749C37.0537 21.4698 37.3774 22.8036 38.1686 23.7338C38.8945 24.5891 39.933 24.9454 41.1686 24.9454C43.2894 24.9454 44.4654 23.5818 44.4654 23.5818L44.3592 24.2436C44.3497 24.3028 44.3532 24.3633 44.3694 24.421C44.3856 24.4787 44.4141 24.5322 44.4529 24.5778C44.4918 24.6234 44.54 24.6601 44.5944 24.6853C44.6488 24.7104 44.708 24.7235 44.7679 24.7236H46.9134C47.0781 24.7237 47.2375 24.6649 47.3627 24.5578C47.4879 24.4507 47.5708 24.3024 47.5963 24.1396L48.8835 15.9876C48.893 15.9286 48.8896 15.8682 48.8734 15.8106C48.8573 15.753 48.8288 15.6996 48.79 15.6541C48.7512 15.6086 48.703 15.5721 48.6487 15.547C48.5944 15.522 48.5353 15.509 48.4755 15.5091ZM45.1555 20.1447C44.9257 21.5054 43.8457 22.4189 42.4683 22.4189C41.7766 22.4189 41.2239 22.1971 40.869 21.7767C40.517 21.3592 40.3832 20.7651 40.4952 20.1032C40.7097 18.7541 41.8079 17.8109 43.1643 17.8109C43.8406 17.8109 44.3905 18.0356 44.7526 18.4596C45.1155 18.888 45.2595 19.4858 45.1555 20.1447ZM61.1606 15.5091H58.7672C58.6543 15.5092 58.5432 15.5369 58.4434 15.5898C58.3437 15.6426 58.2584 15.719 58.1948 15.8123L54.8937 20.6749L53.4945 16.0021C53.4515 15.8596 53.3638 15.7347 53.2444 15.6459C53.1249 15.5571 52.98 15.5091 52.8312 15.5091H50.4792C50.4132 15.5089 50.3481 15.5245 50.2893 15.5545C50.2305 15.5846 50.1798 15.6283 50.1413 15.6819C50.1028 15.7356 50.0777 15.7976 50.068 15.8629C50.0583 15.9283 50.0644 15.9949 50.0857 16.0574L52.7221 23.7941L50.2435 27.2931C50.1995 27.3551 50.1734 27.428 50.168 27.5039C50.1627 27.5798 50.1783 27.6557 50.2133 27.7233C50.2482 27.7909 50.301 27.8476 50.366 27.8872C50.431 27.9267 50.5056 27.9476 50.5817 27.9476H52.9723C53.0839 27.9478 53.1939 27.9208 53.2928 27.8692C53.3917 27.8175 53.4766 27.7426 53.5403 27.6509L61.501 16.16C61.5441 16.0978 61.5695 16.025 61.5742 15.9495C61.5789 15.8739 61.5629 15.7986 61.5278 15.7315C61.4927 15.6644 61.44 15.6083 61.3753 15.5691C61.3105 15.5298 61.2363 15.5091 61.1606 15.5091Z" fill="#253B80"/>
<path d="M69.0856 10.9083H64.111C63.9465 10.9084 63.7874 10.9672 63.6623 11.0741C63.5373 11.181 63.4545 11.3291 63.4288 11.4916L61.4172 24.2458C61.4078 24.3049 61.4114 24.3653 61.4277 24.4228C61.4439 24.4804 61.4724 24.5338 61.5113 24.5793C61.5501 24.6247 61.5984 24.6613 61.6527 24.6863C61.707 24.7114 61.7661 24.7243 61.8259 24.7243H64.3787C64.4938 24.7242 64.6051 24.6829 64.6926 24.608C64.7801 24.533 64.8379 24.4294 64.8558 24.3156L65.4267 20.7003C65.4521 20.5377 65.5349 20.3894 65.6599 20.2824C65.785 20.1753 65.9442 20.1164 66.1088 20.1163H67.6827C70.9598 20.1163 72.8499 18.5309 73.3445 15.389C73.5677 14.0145 73.3532 12.9345 72.7096 12.1781C72.0034 11.3476 70.7503 10.9083 69.0856 10.9083ZM69.6594 15.5665C69.3881 17.3512 68.0245 17.3512 66.7052 17.3512H65.9554L66.4827 14.0181C66.4978 13.9206 66.5473 13.8317 66.6223 13.7676C66.6972 13.7034 66.7927 13.6682 66.8914 13.6683H67.2354C68.1328 13.6683 68.9808 13.6683 69.4187 14.1803C69.6797 14.4858 69.759 14.9396 69.6594 15.5665ZM83.9525 15.509H81.5721C81.4734 15.5088 81.3778 15.5439 81.3028 15.6081C81.2278 15.6723 81.1784 15.7613 81.1634 15.8589L81.0579 16.525L80.8907 16.2836C80.375 15.5352 79.2259 15.285 78.0783 15.285C75.4463 15.285 73.199 17.2785 72.7612 20.0749C72.5343 21.4698 72.8565 22.8036 73.6477 23.7338C74.375 24.589 75.4121 24.9454 76.6477 24.9454C78.7685 24.9454 79.9445 23.5818 79.9445 23.5818L79.8383 24.2436C79.8288 24.3029 79.8323 24.3635 79.8486 24.4213C79.8648 24.4791 79.8935 24.5327 79.9325 24.5784C79.9715 24.624 80.02 24.6606 80.0745 24.6857C80.1291 24.7108 80.1884 24.7237 80.2485 24.7236H82.3932C82.5578 24.7235 82.717 24.6646 82.8421 24.5575C82.9672 24.4505 83.0499 24.3023 83.0754 24.1396L84.3634 15.9876C84.3725 15.9284 84.3687 15.8679 84.3523 15.8102C84.3358 15.7526 84.3071 15.6993 84.268 15.6538C84.229 15.6083 84.1806 15.5718 84.1261 15.5469C84.0716 15.5219 84.0124 15.509 83.9525 15.509ZM80.6325 20.1447C80.4041 21.5054 79.3227 22.4189 77.9452 22.4189C77.255 22.4189 76.7008 22.197 76.3459 21.7767C75.9939 21.3592 75.8616 20.765 75.9721 20.1032C76.1881 18.7541 77.2848 17.8109 78.6412 17.8109C79.3176 17.8109 79.8674 18.0356 80.2296 18.4596C80.5939 18.888 80.7379 19.4858 80.6325 20.1447ZM86.7605 11.2581L84.719 24.2458C84.7097 24.3049 84.7132 24.3653 84.7295 24.4228C84.7457 24.4804 84.7742 24.5338 84.8131 24.5793C84.8519 24.6247 84.9002 24.6613 84.9545 24.6863C85.0088 24.7114 85.0679 24.7243 85.1277 24.7243H87.1801C87.5212 24.7243 87.8107 24.477 87.863 24.1403L89.8761 11.3869C89.8855 11.3277 89.8819 11.2673 89.8657 11.2097C89.8494 11.1521 89.8209 11.0987 89.7821 11.0531C89.7432 11.0076 89.695 10.971 89.6407 10.9459C89.5864 10.9208 89.5272 10.9077 89.4674 10.9076H87.1692C87.0705 10.9079 86.9752 10.9434 86.9003 11.0076C86.8254 11.0719 86.7759 11.1607 86.7605 11.2581Z" fill="#179BD7"/>
<path d="M5.28421 27.2029L5.66458 24.7869L4.8173 24.7673H0.771484L3.58312 6.93966C3.59149 6.88519 3.61916 6.83554 3.66108 6.79976C3.70299 6.76399 3.75637 6.74446 3.81148 6.74475H10.6333C12.898 6.74475 14.4609 7.21603 15.2769 8.14621C15.6595 8.58257 15.9031 9.03857 16.0209 9.54039C16.1446 10.0669 16.1468 10.696 16.026 11.4633L16.0173 11.5193V12.0109L16.3998 12.2277C16.6919 12.3756 16.9544 12.5758 17.1744 12.8182C17.5017 13.1913 17.7133 13.6655 17.8028 14.2277C17.8951 14.8058 17.8646 15.4938 17.7133 16.2728C17.5388 17.1688 17.2566 17.9491 16.8755 18.5877C16.5392 19.1597 16.0872 19.6551 15.5482 20.0422C15.042 20.4015 14.4406 20.6742 13.7606 20.8488C13.1017 21.0204 12.3504 21.1069 11.5264 21.1069H10.9955C10.6158 21.1069 10.2471 21.2437 9.95767 21.4888C9.66862 21.7365 9.47688 22.0787 9.41657 22.4546L9.37657 22.672L8.70458 26.9302L8.67403 27.0866C8.66603 27.136 8.65221 27.1608 8.63185 27.1775C8.61212 27.1936 8.58751 27.2026 8.56203 27.2029H5.28421Z" fill="#253B80"/>
<path d="M16.7625 11.576C16.7422 11.7062 16.7189 11.8393 16.6927 11.976C15.7931 16.595 12.7153 18.1906 8.78436 18.1906H6.7829C6.30217 18.1906 5.89708 18.5397 5.82217 19.0139L4.79745 25.5128L4.50727 27.355C4.49571 27.428 4.50012 27.5027 4.5202 27.5739C4.54028 27.6451 4.57556 27.7112 4.6236 27.7674C4.67163 27.8237 4.73129 27.8689 4.79847 27.8999C4.86564 27.9309 4.93874 27.9469 5.01272 27.947H8.56254C8.9829 27.947 9.33999 27.6415 9.40617 27.227L9.44108 27.0466L10.1094 22.8051L10.1524 22.5724C10.2178 22.1564 10.5756 21.851 10.996 21.851H11.5269C14.9662 21.851 17.6585 20.4546 18.4454 16.4139C18.7742 14.7259 18.604 13.3164 17.7342 12.3251C17.4585 12.0185 17.1292 11.7647 16.7625 11.576Z" fill="#179BD7"/>
<path d="M15.8215 11.2007C15.5343 11.1176 15.2421 11.0528 14.9466 11.0065C14.3629 10.9168 13.7729 10.8738 13.1823 10.8778H7.83536C7.63187 10.8777 7.43504 10.9503 7.28045 11.0826C7.12585 11.2149 7.0237 11.3982 6.99245 11.5993L5.85499 18.8036L5.82227 19.0138C5.8577 18.7845 5.97405 18.5754 6.15027 18.4244C6.32648 18.2734 6.55093 18.1904 6.78299 18.1905H8.78445C12.7154 18.1905 15.7932 16.5942 16.6928 11.976C16.7197 11.8393 16.7423 11.7062 16.7626 11.576C16.5252 11.4515 16.2778 11.3472 16.023 11.264C15.9562 11.2418 15.889 11.2207 15.8215 11.2007Z" fill="#222D65"/>
<path d="M6.99193 11.5993C7.02292 11.3981 7.12502 11.2148 7.27969 11.0825C7.43436 10.9503 7.63134 10.8779 7.83484 10.8785H13.1818C13.8152 10.8785 14.4065 10.92 14.9461 11.0073C15.3113 11.0647 15.6714 11.1505 16.0232 11.264C16.2887 11.352 16.5352 11.456 16.7628 11.576C17.0305 9.86909 16.7607 8.70691 15.8378 7.65455C14.8203 6.496 12.9839 6 10.6341 6H3.8123C3.3323 6 2.92284 6.34909 2.84866 6.824L0.00720706 24.8349C-0.00602796 24.9185 -0.000992484 25.004 0.0219671 25.0855C0.0449267 25.167 0.0852655 25.2426 0.140209 25.307C0.195152 25.3714 0.263396 25.4231 0.340245 25.4586C0.417095 25.4942 0.500727 25.5126 0.585389 25.5127H4.79703L5.85448 18.8036L6.99193 11.5993Z" fill="#253B80"/>
</svg>
