<svg width="120" height="120" viewBox="0 0 120 120" fill="none" xmlns="http://www.w3.org/2000/svg">
<path opacity="0.25" d="M69.9464 0.0316158C68.4744 0.0876165 67.3264 1.32497 67.381 2.79698C67.437 4.269 68.6797 5.42368 70.1451 5.36235C81.7132 4.89167 93.2533 9.5984 101.828 18.1718C110.403 26.7479 115.072 38.2947 114.639 49.8549C114.583 51.3269 115.732 52.5643 117.204 52.6203C117.238 52.6216 117.272 52.6216 117.306 52.6216C118.732 52.6216 119.915 51.4922 119.968 50.0549C120.456 37.0174 115.219 24.0212 105.599 14.4011C95.9787 4.78101 82.9759 -0.459057 69.9464 0.0316158Z" fill="#FF6E2A"/>
<path opacity="0.5" d="M88.5814 31.4203C93.3121 36.151 96.0775 42.3844 96.5775 49.4472C96.6775 50.8525 97.8482 51.9245 99.2349 51.9245C99.2975 51.9245 99.3615 51.9219 99.4269 51.9179C100.896 51.8139 102.003 50.5379 101.899 49.0685C101.306 40.7071 98.0055 33.3003 92.3534 27.6496C86.7014 21.9975 79.296 18.6961 70.9345 18.1041C69.4678 18.0135 68.1891 19.1068 68.0865 20.5762C67.9825 22.0468 69.0892 23.3215 70.5585 23.4255C77.6173 23.9242 83.8493 26.6909 88.5814 31.4203Z" fill="#FF6E2A"/>
<path d="M100.44 74.3634C97.5094 71.4327 93.6133 69.8194 89.4693 69.8194C85.3252 69.8194 81.4292 71.4327 78.4985 74.3634L73.7304 79.1302C71.521 81.3395 68.021 81.6182 65.409 79.7915C60.5636 76.4021 55.9555 72.5314 51.7115 68.2874C47.4634 64.038 43.5927 59.4299 40.2087 54.5912C38.382 51.9792 38.6593 48.4791 40.87 46.2698L45.6367 41.5017C51.6861 35.4536 51.6861 25.6108 45.6367 19.5628L34.8633 8.78929C31.9339 5.85993 28.0378 4.24524 23.8925 4.24524C19.7484 4.24524 15.8524 5.85993 12.923 8.78929L8.01093 13.7C1.93352 19.7801 -0.955848 28.3135 0.2815 36.5283C1.98552 47.8471 6.19757 59.4139 12.4563 69.9687C16.9484 77.5861 22.4778 84.6982 28.8898 91.1103C35.3006 97.521 42.4127 103.049 50.0261 107.54C60.5876 113.803 72.153 118.013 83.4705 119.717C84.7252 119.907 85.9865 120 87.2466 120C94.236 120 101.151 117.139 106.3 111.987L111.211 107.076C114.142 104.146 115.755 100.25 115.755 96.105C115.755 91.9623 114.142 88.0663 111.211 85.1342L100.44 74.3634ZM107.441 103.306L102.529 108.217C97.644 113.105 90.8173 115.432 84.2665 114.445C73.6211 112.843 62.7223 108.868 52.7408 102.95C45.5101 98.6851 38.754 93.433 32.6606 87.3409C26.5658 81.2462 21.3138 74.4901 17.047 67.2553C11.1323 57.2819 7.15892 46.3818 5.5549 35.735C4.56955 29.1869 6.89758 22.3588 11.783 17.4721L16.6937 12.5613C20.6644 8.59196 27.1218 8.59196 31.0912 12.5613L41.8647 23.3348C45.8341 27.3042 45.8341 33.7629 41.8647 37.7323L37.098 42.5004C33.0552 46.5418 32.5259 52.9152 35.8379 57.6499C39.4006 62.7433 43.4727 67.5927 47.9394 72.0607L49.8261 70.1754L47.9407 72.0607C52.4035 76.5248 57.2529 80.5955 62.3529 84.1636C67.0903 87.4769 73.4624 86.9463 77.5024 82.9035L82.2705 78.1368C84.1932 76.2141 86.7506 75.1554 89.4693 75.1554C92.188 75.1554 94.7453 76.2141 96.668 78.1368L107.441 88.9089C109.364 90.8316 110.423 93.389 110.423 96.1077C110.423 98.8264 109.364 101.382 107.441 103.306Z" fill="#FF6E2A"/>
</svg>
