<svg width="16" height="16" viewBox="0 0 16 16" fill="none" xmlns="http://www.w3.org/2000/svg">
<circle opacity="0.5" cx="8" cy="7.99954" r="7.5" stroke="#8E94A3"/>
<path d="M8.38748 4.93402C8.28111 5.04038 8.15196 5.09356 8.00001 5.09356C7.84806 5.09356 7.71891 5.04038 7.61255 4.93402C7.50618 4.82765 7.453 4.6985 7.453 4.54655C7.453 4.3946 7.50618 4.26545 7.61255 4.15909C7.71891 4.05272 7.84806 3.99954 8.00001 3.99954C8.15196 3.99954 8.28111 4.05272 8.38748 4.15909C8.49384 4.26545 8.54702 4.3946 8.54702 4.54655C8.54702 4.6985 8.49384 4.82765 8.38748 4.93402ZM7.62394 11.9995V6.30154H8.37608V11.9995H7.62394Z" fill="#8E94A3"/>
</svg>
