<svg width="24" height="24" viewBox="0 0 24 24" fill="none" xmlns="http://www.w3.org/2000/svg">
<path d="M10.5 9.66667H9V12H10.5V19H13V12H14.821L15 9.66667H13V8.69425C13 8.13717 13.096 7.91667 13.5575 7.91667H15V5H13.096C11.298 5 10.5 5.92342 10.5 7.69208V9.66667Z" fill="#2CAD2C"/>
<path d="M12 2.163C15.204 2.163 15.584 2.175 16.85 2.233C20.102 2.381 21.621 3.924 21.769 7.152C21.827 8.417 21.838 8.797 21.838 12.001C21.838 15.206 21.826 15.585 21.769 16.85C21.62 20.075 20.105 21.621 16.85 21.769C15.584 21.827 15.206 21.839 12 21.839C8.796 21.839 8.416 21.827 7.151 21.769C3.891 21.62 2.38 20.07 2.232 16.849C2.174 15.584 2.162 15.205 2.162 12C2.162 8.796 2.175 8.417 2.232 7.151C2.381 3.924 3.896 2.38 7.151 2.232C8.417 2.175 8.796 2.163 12 2.163ZM12 0C8.741 0 8.333 0.014 7.053 0.072C2.695 0.272 0.273 2.69 0.073 7.052C0.014 8.333 0 8.741 0 12C0 15.259 0.014 15.668 0.072 16.948C0.272 21.306 2.69 23.728 7.052 23.928C8.333 23.986 8.741 24 12 24C15.259 24 15.668 23.986 16.948 23.928C21.302 23.728 23.73 21.31 23.927 16.948C23.986 15.668 24 15.259 24 12C24 8.741 23.986 8.333 23.928 7.053C23.732 2.699 21.311 0.273 16.949 0.073C15.668 0.014 15.259 0 12 0Z" fill="#2CAD2C"/>
</svg>
