<svg width="60" height="36" viewBox="0 0 60 36" fill="none" xmlns="http://www.w3.org/2000/svg">
<path d="M36.143 11C33.076 11 30.334 12.593 30.334 15.53C30.334 18.898 35.195 19.132 35.195 20.823C35.195 21.537 34.378 22.173 32.985 22.173C31.005 22.173 29.525 21.281 29.525 21.281L28.89 24.248C28.89 24.248 30.594 25.001 32.856 25.001C36.212 25.001 38.85 23.331 38.85 20.343C38.85 16.783 33.967 16.559 33.967 14.984C33.967 14.426 34.637 13.812 36.03 13.812C37.6 13.812 38.88 14.461 38.88 14.461L39.5 11.598C39.5 11.602 38.107 11.001 36.144 11.001L36.143 11ZM8.073 11.218L8 11.65C8 11.65 9.289 11.888 10.452 12.359C11.949 12.899 12.057 13.215 12.308 14.193L15.054 24.78H18.734L24.41 11.217H20.738L17.092 20.438L15.604 12.623C15.47 11.728 14.777 11.217 13.93 11.217H8.074L8.073 11.218ZM25.888 11.218L23.008 24.777H26.511L29.378 11.217H25.888V11.218ZM45.424 11.218C44.581 11.218 44.131 11.672 43.802 12.459L38.672 24.777H42.345L43.055 22.723H47.53L47.963 24.777H51.207L48.378 11.217H45.424V11.218ZM45.904 14.881L46.994 19.971H44.074L45.904 14.881Z" fill="#A99587"/>
</svg>
